{"glyphs":{"0":{"ha":757,"x_min":0,"x_max":728,"o":"m 364 978 q 513 958 446 978 q 627 885 579 939 q 701 735 675 831 q 728 489 728 640 q 701 242 728 338 q 627 93 675 147 q 513 19 579 39 q 364 0 446 0 q 216 19 283 0 q 101 93 149 39 q 26 242 53 147 q 0 489 0 338 q 26 735 0 640 q 101 885 53 831 q 216 958 149 939 q 364 978 283 978 m 364 375 q 594 489 594 375 q 538 574 594 544 q 364 604 482 604 q 190 574 247 604 q 133 489 133 544 q 364 375 133 375 z "},"1":{"ha":486,"x_min":0,"x_max":458,"o":"m 458 786 q 449 694 458 733 q 428 623 440 656 q 408 558 417 590 q 399 489 399 526 q 407 415 399 451 q 426 339 415 378 q 444 256 436 300 q 453 160 453 213 q 404 40 453 81 q 267 0 356 0 q 130 40 178 0 q 82 160 82 81 q 108 257 82 213 q 164 348 133 301 q 220 447 194 394 q 246 567 246 499 q 203 663 246 663 q 160 656 178 663 q 127 641 143 649 q 96 626 111 633 q 61 619 81 619 q 27 627 39 619 q 9 647 15 635 q 1 678 3 660 q 0 717 0 696 q 16 809 0 763 q 63 893 32 856 q 142 954 94 931 q 253 978 189 978 q 350 963 311 978 q 413 921 389 947 q 448 860 438 894 q 458 786 458 825 z "},"2":{"ha":726,"x_min":0,"x_max":697,"o":"m 539 315 q 653 269 610 315 q 697 153 697 224 q 666 66 697 97 q 583 20 635 35 q 465 3 532 6 q 326 0 399 0 q 173 12 235 0 q 72 50 111 24 q 17 119 33 76 q 0 224 0 163 q 28 326 0 281 q 99 407 57 371 q 191 472 142 443 q 283 524 240 500 q 353 570 325 549 q 382 614 382 592 q 372 640 382 629 q 343 650 361 650 q 301 640 319 650 q 262 617 283 629 q 208 594 240 604 q 126 583 176 583 q 36 620 72 583 q 0 728 0 657 q 26 830 0 783 q 96 910 51 876 q 201 961 140 943 q 335 979 263 979 q 485 959 418 979 q 599 906 551 939 q 672 828 646 872 q 697 738 697 785 q 667 639 697 682 q 590 561 636 596 q 492 499 544 526 q 393 445 439 471 q 317 394 347 419 q 286 342 286 369 q 295 322 286 328 q 314 317 304 317 q 363 317 343 317 q 406 316 383 317 q 458 315 428 315 q 539 315 489 315 z "},"3":{"ha":742,"x_min":0,"x_max":713,"o":"m 578 538 q 676 460 640 513 q 713 328 713 407 q 692 208 713 267 q 629 103 672 149 q 520 28 586 57 q 364 0 454 0 q 228 9 292 0 q 118 40 165 18 q 43 97 71 61 q 15 188 15 133 q 52 281 15 244 q 169 318 89 318 q 224 312 200 318 q 270 297 249 306 q 315 283 292 289 q 367 276 338 276 q 422 335 422 276 q 372 406 422 379 q 243 432 322 432 q 188 450 207 432 q 169 490 169 468 q 188 531 169 513 q 242 549 206 549 q 372 569 332 549 q 413 617 413 590 q 407 641 413 628 q 390 665 401 654 q 362 684 378 676 q 325 692 346 692 q 267 683 292 692 q 218 665 242 675 q 168 647 194 656 q 107 639 142 639 q 31 670 63 639 q 0 754 0 701 q 22 853 0 811 q 86 924 44 896 q 186 965 128 951 q 317 979 244 979 q 467 964 399 979 q 585 917 536 949 q 662 837 635 886 q 689 718 689 788 q 663 620 689 665 q 578 538 636 575 z "},"4":{"ha":799,"x_min":0,"x_max":769,"o":"m 769 815 q 759 720 769 764 q 737 638 749 676 q 715 563 725 600 q 704 489 704 526 q 713 415 704 451 q 731 339 721 378 q 750 256 742 300 q 758 160 758 213 q 710 40 758 81 q 572 0 661 0 q 435 40 483 0 q 388 160 388 81 q 404 249 388 208 q 442 333 421 290 l 442 333 q 448 374 453 354 q 421 394 443 394 q 372 378 400 394 q 309 342 343 361 q 235 306 275 322 q 150 289 194 289 q 46 331 79 289 q 13 439 13 372 q 17 488 13 465 q 28 532 22 511 q 40 572 35 553 q 44 608 44 592 q 38 669 44 642 q 22 722 31 696 q 7 774 14 747 q 0 829 0 800 q 13 883 0 857 q 47 931 25 910 q 100 965 69 951 q 168 978 131 978 q 288 937 242 978 q 333 824 333 896 q 316 745 333 778 q 278 684 299 713 q 241 627 258 656 q 224 563 224 599 q 241 533 224 544 q 283 513 258 521 q 335 502 308 506 q 382 499 363 499 q 485 525 451 499 q 508 599 518 551 q 490 649 503 626 q 465 694 478 671 q 443 748 453 718 q 433 819 433 778 q 446 882 433 853 q 481 933 458 911 q 533 966 503 954 q 596 978 563 978 q 665 966 633 978 q 719 933 696 954 q 756 881 743 911 q 769 815 769 851 z "},"5":{"ha":726,"x_min":0,"x_max":697,"o":"m 551 663 q 489 667 514 663 q 441 676 464 671 q 394 685 418 681 q 333 689 369 689 q 300 674 314 689 q 286 646 286 660 q 317 603 286 615 q 393 581 347 590 q 492 562 439 572 q 590 526 544 551 q 667 451 636 500 q 697 319 697 403 q 672 191 697 250 q 599 90 646 132 q 485 24 551 47 q 335 0 418 0 q 201 18 263 0 q 96 69 140 36 q 26 149 51 103 q 0 250 0 194 q 36 358 0 321 q 126 394 72 394 q 208 384 176 394 q 262 362 240 374 q 301 340 283 350 q 342 329 319 329 q 379 342 364 329 q 394 376 394 354 q 338 485 394 443 q 164 528 282 528 q 77 543 110 528 q 27 588 44 558 q 5 658 10 617 q 0 754 0 700 q 17 858 0 815 q 72 928 33 901 q 173 967 111 956 q 326 979 235 979 q 465 976 399 979 q 583 958 532 974 q 666 913 635 943 q 697 825 697 882 q 660 708 697 754 q 551 663 622 663 z "},"6":{"ha":722,"x_min":0,"x_max":842,"o":"m 472 561 q 565 544 522 561 q 640 495 608 526 q 690 419 672 464 q 708 319 708 375 q 687 191 708 250 q 623 90 665 132 q 517 24 581 47 q 372 0 454 0 q 299 5 339 0 q 217 26 258 10 q 136 74 175 43 q 67 159 97 106 q 18 291 36 213 q 0 479 0 369 q 35 731 0 633 q 126 884 71 829 q 247 959 181 939 q 372 979 313 979 q 501 960 444 979 q 595 908 557 940 q 653 832 633 875 q 674 742 674 789 q 638 654 674 688 q 547 621 601 621 q 498 629 518 621 q 459 647 478 638 q 419 664 440 656 q 365 672 399 672 q 310 651 333 672 q 278 603 286 629 q 278 555 269 576 q 318 533 288 533 q 358 538 340 533 q 393 547 375 542 q 430 557 411 553 q 472 561 449 561 m 372 278 q 463 298 431 279 q 496 344 496 317 q 467 392 496 372 q 376 413 438 413 q 300 397 329 413 q 271 346 271 381 q 280 316 271 329 q 303 294 289 303 q 336 282 318 286 q 372 278 354 278 m 842 1079 l 756 1079 l 842 1079 z "},"7":{"ha":726,"x_min":0,"x_max":697,"o":"m 125 663 q 65 670 89 663 q 27 697 42 678 q 6 747 13 715 q 0 825 0 778 q 31 913 0 882 q 114 958 63 943 q 233 976 165 974 q 372 979 300 979 q 525 967 463 979 q 626 928 588 956 q 681 858 664 901 q 697 754 697 815 q 678 654 697 700 q 632 566 660 608 q 571 482 604 524 q 510 397 538 440 q 463 306 482 354 q 444 201 444 258 q 390 51 444 103 q 235 0 335 0 q 103 47 153 0 q 53 176 53 94 q 86 299 53 244 q 169 397 119 353 q 278 474 219 440 q 388 534 338 507 q 471 583 438 561 q 504 626 504 606 q 497 655 504 644 q 475 670 490 665 q 435 676 460 675 q 372 678 410 678 q 307 676 336 678 q 249 670 278 674 q 191 665 221 667 q 125 663 161 663 z "},"8":{"ha":715,"x_min":0,"x_max":688,"o":"m 606 456 q 665 383 643 424 q 688 293 688 343 q 660 163 688 218 q 584 72 632 108 q 474 17 536 35 q 343 0 413 0 q 213 17 275 0 q 103 72 150 35 q 28 163 56 108 q 0 293 0 218 q 22 388 0 346 q 85 461 44 431 q 97 489 97 474 q 93 503 97 497 q 85 515 89 510 q 34 588 53 544 q 15 693 15 631 q 42 822 15 768 q 115 911 69 876 q 219 963 160 946 q 343 979 278 979 q 468 963 408 979 q 573 911 528 946 q 645 822 618 876 q 672 693 672 768 q 655 590 672 632 q 606 518 638 547 l 606 518 q 595 505 600 513 q 590 486 590 497 q 594 469 590 476 q 606 456 599 463 m 343 653 q 299 651 321 653 q 261 644 278 650 q 235 627 244 639 q 225 596 225 615 q 235 565 225 576 q 261 547 244 553 q 299 540 278 542 q 343 539 321 539 q 388 540 367 539 q 426 547 410 542 q 453 565 443 553 q 463 596 463 576 q 453 627 463 615 q 426 644 443 639 q 388 651 410 650 q 343 653 367 653 m 343 325 q 390 326 368 325 q 429 333 413 328 q 456 351 446 339 q 467 382 467 363 q 456 414 467 403 q 429 431 446 425 q 390 438 413 436 q 343 439 368 439 q 297 438 319 439 q 258 431 275 436 q 230 414 240 425 q 219 382 219 403 q 230 351 219 363 q 258 333 240 339 q 297 326 275 328 q 343 325 319 325 z "},"9":{"ha":719,"x_min":0,"x_max":690,"o":"m 346 979 q 456 965 396 979 q 567 902 515 951 q 655 758 619 853 q 690 500 690 663 q 662 271 690 365 q 585 116 633 176 q 473 28 538 56 q 336 0 408 0 q 205 19 264 0 q 104 72 146 39 q 40 147 63 104 q 17 238 17 190 q 53 342 17 308 q 143 375 89 375 q 200 368 179 375 q 238 352 221 361 q 273 336 254 343 q 325 329 292 329 q 389 351 365 329 q 413 406 413 372 q 396 449 413 433 q 351 464 379 464 q 323 461 335 464 q 299 454 311 458 q 270 447 286 450 q 228 444 254 444 q 145 457 186 444 q 72 496 104 469 q 19 563 39 522 q 0 660 0 604 q 23 788 0 729 q 90 889 46 846 q 199 956 135 932 q 346 979 263 979 m 304 565 q 383 587 351 565 q 415 643 415 608 q 381 692 415 678 q 304 707 347 707 q 217 688 246 707 q 189 633 189 668 q 217 585 189 606 q 304 565 244 565 z "},"Ð":{"ha":347,"x_min":0,"x_max":0,"o":""},"\u0000":{"ha":0,"x_min":0,"x_max":0,"o":""},"\r":{"ha":463,"x_min":0,"x_max":0,"o":""}," ":{"ha":278,"x_min":0,"x_max":0,"o":""},"A":{"ha":896,"x_min":0,"x_max":867,"o":"m 768 500 q 783 422 768 458 q 817 351 799 386 q 851 276 836 315 q 867 186 867 236 q 819 51 867 103 q 682 0 771 0 q 546 51 593 0 q 499 181 499 101 q 504 233 499 210 q 518 276 510 257 q 532 331 531 304 q 523 378 533 357 q 490 412 513 399 q 432 425 467 425 q 373 410 394 425 q 343 373 351 396 q 338 323 335 350 q 350 274 340 296 q 363 233 357 257 q 368 181 368 210 q 322 51 368 101 q 186 0 275 0 q 49 51 97 0 q 0 186 0 103 q 16 276 0 236 q 51 351 32 315 q 85 422 69 386 q 100 500 100 458 q 90 558 100 533 q 68 605 81 582 q 46 655 56 628 q 36 722 36 682 q 78 854 36 804 q 181 931 119 904 q 310 968 242 958 q 433 978 379 978 q 557 968 488 978 q 688 931 626 958 q 790 854 749 904 q 832 722 832 804 q 822 655 832 682 q 800 605 813 628 q 778 558 788 582 q 768 500 768 533 m 435 529 q 500 533 468 529 q 556 545 532 536 q 594 569 579 554 q 608 607 608 585 q 594 644 608 629 q 556 669 579 660 q 500 681 532 678 q 435 685 468 685 q 370 681 401 685 q 315 669 339 678 q 276 644 290 660 q 263 607 263 629 q 276 569 263 585 q 315 545 290 554 q 370 533 339 536 q 435 529 401 529 z "},"a":{"ha":676,"x_min":0,"x_max":656,"o":"m 604 385 q 613 315 604 347 q 630 252 621 282 q 647 194 639 222 q 656 138 656 167 q 622 36 656 72 q 521 0 588 0 q 484 6 500 0 q 455 19 468 13 q 428 33 442 26 q 400 39 415 39 q 374 32 386 39 q 346 16 363 25 q 304 0 329 7 q 238 -7 279 -7 q 158 3 200 -7 q 81 38 117 14 q 23 102 46 61 q 0 203 0 143 q 26 315 0 272 q 92 387 53 358 q 178 433 132 415 q 265 472 225 451 q 331 519 304 492 q 357 590 357 546 q 347 616 357 606 q 322 626 336 626 q 278 612 299 626 q 257 561 257 597 q 222 490 257 522 q 125 457 188 457 q 42 488 78 457 q 7 565 7 519 q 30 647 7 610 q 92 712 53 685 q 185 754 132 739 q 299 769 239 769 q 483 751 415 769 q 585 701 551 732 q 626 631 619 671 q 628 547 633 590 q 614 463 624 504 q 604 385 604 421 m 288 304 q 301 235 288 265 q 338 206 315 206 q 386 233 369 206 q 403 311 403 261 q 387 381 403 360 q 353 403 371 403 q 304 376 321 403 q 288 304 288 350 z "},"B":{"ha":779,"x_min":0,"x_max":751,"o":"m 0 226 q 9 299 0 267 q 28 360 18 331 q 47 420 39 389 q 56 489 56 451 q 47 557 56 526 q 28 617 39 588 q 9 681 18 647 q 0 758 0 714 q 29 881 0 836 q 102 949 58 926 q 197 978 146 972 q 293 985 249 985 q 483 959 403 985 q 614 888 563 933 q 690 782 665 843 q 714 651 714 721 q 688 546 714 585 q 618 479 663 507 q 667 462 643 476 q 709 419 690 447 q 740 347 728 390 q 751 243 751 304 q 726 142 751 188 q 654 63 701 96 q 538 11 607 29 q 383 -7 469 -7 q 260 -1 328 -7 q 135 27 193 4 q 39 97 78 50 q 0 226 0 144 m 390 685 q 331 681 360 685 q 281 669 303 678 q 247 644 260 660 q 233 607 233 629 q 247 569 233 585 q 281 545 260 554 q 331 533 303 536 q 390 529 360 529 q 449 533 421 529 q 499 545 478 536 q 533 569 521 554 q 546 607 546 585 q 533 644 546 629 q 499 669 521 660 q 449 681 478 678 q 390 685 421 685 m 331 293 q 418 297 375 293 q 494 308 461 300 q 548 332 528 317 q 568 372 568 347 q 549 410 568 397 q 503 429 529 424 q 450 435 478 435 q 406 436 422 436 q 274 418 315 436 q 233 356 233 400 q 242 320 233 333 q 265 301 251 307 q 297 294 279 296 q 331 293 314 293 z "},"C":{"ha":747,"x_min":0,"x_max":719,"o":"m 290 363 q 349 370 318 363 q 410 387 379 378 q 472 403 442 396 q 529 411 503 411 q 671 366 622 411 q 719 247 719 321 q 697 136 719 183 q 632 57 674 89 q 531 9 590 25 q 401 -7 472 -7 q 226 34 301 -7 q 101 144 151 75 q 25 302 50 213 q 0 489 0 392 q 23 676 0 586 q 92 834 46 765 q 209 944 139 903 q 375 985 279 985 q 634 909 549 985 q 719 696 719 833 q 673 579 719 622 q 560 536 626 536 q 478 552 513 536 q 410 588 444 568 q 335 623 376 607 q 235 639 294 639 q 137 599 172 639 q 101 503 101 558 q 117 449 101 474 q 158 404 132 424 q 217 374 183 385 q 290 363 251 363 z "},"P":{"ha":819,"x_min":0,"x_max":799,"o":"m 403 985 q 696 883 593 985 q 799 588 799 781 q 783 470 799 524 q 739 378 768 417 q 667 317 710 339 q 569 296 624 296 q 474 311 515 296 q 403 344 433 326 q 351 378 372 363 q 317 393 331 393 q 299 387 308 393 q 290 368 290 381 q 306 335 290 356 q 341 289 322 314 q 376 236 360 264 q 392 181 392 208 q 377 108 392 142 q 335 51 363 75 q 272 13 308 26 q 190 0 235 0 q 53 51 101 0 q 6 181 6 101 q 15 274 6 233 q 35 349 24 314 q 55 418 46 385 q 64 489 64 451 q 54 553 64 526 q 32 606 44 579 q 10 667 19 633 q 0 753 0 701 q 37 867 0 822 q 132 939 74 913 q 262 975 190 965 q 403 985 333 985 m 406 489 q 465 492 436 489 q 515 505 493 496 q 549 529 536 514 q 561 567 561 544 q 549 604 561 589 q 515 628 536 619 q 465 641 493 638 q 406 644 436 644 q 347 641 375 644 q 297 628 318 638 q 262 604 275 619 q 249 567 249 589 q 262 529 249 544 q 297 505 275 514 q 347 492 318 496 q 406 489 375 489 z "},"R":{"ha":838,"x_min":0,"x_max":817,"o":"m 646 358 q 672 319 646 333 q 731 287 699 306 q 790 238 764 268 q 817 151 817 207 q 769 43 817 86 q 633 0 722 0 q 571 6 604 0 q 510 28 538 11 q 464 80 482 46 q 446 171 446 114 q 448 213 446 196 q 453 244 450 231 q 458 273 456 258 q 460 308 460 288 q 451 343 460 329 q 429 366 443 357 q 399 379 415 375 q 367 383 382 383 q 303 366 321 383 q 286 333 286 349 q 299 294 286 311 q 326 259 311 278 q 353 217 340 240 q 365 161 365 194 q 320 43 365 86 q 186 0 275 0 q 49 51 97 0 q 0 181 0 101 q 10 274 0 233 q 32 349 19 314 q 54 418 44 385 q 64 489 64 451 q 54 553 64 526 q 32 606 44 579 q 10 667 19 633 q 0 753 0 701 q 38 866 0 822 q 133 935 76 910 q 256 969 190 960 q 376 978 322 978 q 533 958 457 978 q 669 899 610 938 q 763 804 728 861 q 799 674 799 747 q 788 564 799 608 q 759 490 776 519 q 722 443 742 461 q 685 412 703 425 q 657 387 668 399 q 646 358 646 375 m 406 500 q 465 503 436 500 q 515 516 493 507 q 549 540 536 525 q 561 578 561 556 q 549 615 561 600 q 515 640 536 631 q 465 652 493 649 q 406 656 436 656 q 347 652 375 656 q 297 640 318 649 q 262 615 275 631 q 249 578 249 600 q 262 540 249 556 q 297 516 275 525 q 347 503 318 507 q 406 500 375 500 z "},"T":{"ha":944,"x_min":0,"x_max":915,"o":"m 471 978 q 690 969 604 978 q 826 938 776 960 q 896 882 876 917 q 915 796 915 847 q 879 667 915 718 q 772 615 843 615 q 740 619 754 615 q 709 626 725 622 q 672 634 693 631 q 618 638 650 638 q 548 623 563 638 q 533 575 533 608 q 551 465 533 518 q 588 363 568 413 q 626 263 608 313 q 643 163 643 214 q 595 41 643 82 q 458 0 547 0 q 321 41 369 0 q 272 163 272 82 q 290 263 272 214 q 327 363 307 313 q 365 465 347 413 q 382 575 382 518 q 379 603 382 592 q 367 623 376 615 q 342 634 358 631 q 297 638 325 638 q 244 634 265 638 q 206 626 222 631 q 176 619 190 622 q 143 615 163 615 q 36 667 72 615 q 0 793 0 718 q 20 878 0 843 q 93 935 40 914 q 237 967 146 957 q 471 978 328 978 z "},"I":{"ha":400,"x_min":0,"x_max":371,"o":"m 186 0 q 49 40 97 0 q 0 160 0 81 q 16 256 0 213 q 52 339 32 300 q 88 415 72 378 q 104 489 104 451 q 88 563 104 526 q 52 639 72 600 q 16 722 32 678 q 0 817 0 765 q 49 937 0 896 q 186 978 97 978 q 323 937 275 978 q 371 817 371 896 q 355 722 371 765 q 319 639 339 678 q 283 563 299 600 q 267 489 267 526 q 283 415 267 451 q 319 339 299 378 q 355 256 339 300 q 371 160 371 213 q 323 40 371 81 q 186 0 275 0 z "},"K":{"ha":896,"x_min":0,"x_max":867,"o":"m 481 460 q 536 432 500 443 q 615 408 572 421 q 702 378 657 394 q 783 334 747 361 q 843 265 819 307 q 867 163 867 224 q 821 48 867 96 q 689 0 775 0 q 599 21 638 0 q 532 75 561 42 q 481 149 503 108 q 440 229 458 190 q 406 301 422 268 q 372 353 390 335 q 337 358 347 378 q 346 293 326 338 l 346 293 q 364 240 357 268 q 371 181 371 213 q 323 51 371 101 q 186 0 275 0 q 49 51 97 0 q 0 181 0 101 q 17 274 0 233 q 55 349 35 314 q 92 418 75 385 q 110 489 110 451 q 92 560 110 526 q 55 628 75 593 q 17 704 35 664 q 0 797 0 744 q 49 927 0 876 q 186 978 97 978 q 323 927 275 978 q 371 797 371 876 q 351 701 371 746 q 315 624 332 657 q 294 571 299 590 q 318 551 289 551 q 351 569 339 551 q 376 611 364 588 q 397 667 388 632 q 419 743 407 703 q 449 824 432 783 q 493 899 467 865 q 557 953 519 932 q 647 974 594 974 q 766 932 722 974 q 810 814 810 890 q 790 719 810 758 q 738 652 769 679 q 667 606 707 625 q 590 573 628 588 q 521 545 553 558 q 471 514 489 532 q 460 489 460 501 q 481 460 461 476 z "},"D":{"ha":789,"x_min":0,"x_max":768,"o":"m 338 978 q 513 938 433 978 q 649 831 592 899 q 737 675 706 764 q 768 489 768 586 q 736 303 768 392 q 647 147 704 214 q 509 40 589 79 q 335 0 429 0 l 186 0 q 49 51 97 0 q 0 181 0 101 q 15 274 0 233 q 47 349 29 314 q 80 418 65 385 q 94 489 94 451 q 80 560 94 526 q 47 628 65 593 q 15 704 29 664 q 0 797 0 744 q 49 927 0 876 q 186 978 97 978 l 338 978 m 400 363 q 603 397 539 363 q 667 489 667 431 q 601 581 667 544 q 418 618 535 618 q 331 615 371 618 q 260 597 290 611 q 214 558 231 583 q 197 489 197 533 q 215 422 197 447 q 263 384 233 397 q 328 367 292 371 q 400 363 364 363 z "},"E":{"ha":681,"x_min":0,"x_max":646,"o":"m 510 319 q 615 278 585 319 q 646 160 646 238 q 631 85 646 115 q 574 35 615 54 q 460 8 532 17 q 274 0 388 0 q 170 9 219 0 q 83 42 121 18 q 22 110 44 67 q 0 224 0 154 q 8 310 0 276 q 24 372 15 344 q 41 425 33 399 q 49 489 49 451 q 41 553 49 526 q 24 606 33 579 q 8 667 15 633 q 0 753 0 701 q 27 866 0 822 q 97 935 54 910 q 194 969 140 960 q 303 978 249 978 q 453 972 389 978 q 561 944 518 965 q 625 884 604 924 q 646 778 646 844 q 633 719 646 742 q 600 682 621 696 q 552 663 579 668 q 496 658 525 658 q 410 668 447 658 q 335 678 374 678 q 296 672 315 678 q 262 656 276 665 q 238 633 247 646 q 229 606 229 619 q 247 555 229 575 q 297 535 265 535 q 340 543 318 535 q 383 560 361 551 q 428 578 406 569 q 475 586 451 586 q 548 555 521 586 q 575 483 575 524 q 549 414 575 443 q 475 385 522 385 q 427 390 451 385 q 380 402 403 396 q 335 413 357 408 q 297 418 314 418 q 255 404 272 418 q 238 363 238 390 q 269 311 238 332 q 335 290 300 290 q 417 305 374 290 q 510 319 461 319 z "},"F":{"ha":764,"x_min":1,"x_max":736,"o":"m 307 651 q 245 629 268 651 q 222 578 222 607 q 301 519 222 519 q 359 526 333 519 q 409 540 385 532 q 457 553 433 547 q 510 560 481 560 q 581 533 553 560 q 608 458 608 507 q 581 383 608 410 q 510 357 553 357 q 460 364 481 357 q 420 379 439 371 q 383 394 401 388 q 342 401 365 401 q 301 383 304 401 q 309 331 297 364 q 336 253 321 297 q 351 156 351 208 q 309 42 351 83 q 186 0 267 0 q 53 39 97 0 q 10 172 10 78 q 17 253 10 217 q 35 322 25 289 q 52 392 44 356 q 60 472 60 428 q 51 557 60 519 q 31 629 42 594 q 10 701 19 664 q 1 786 1 739 q 29 876 1 839 q 105 935 57 913 q 219 968 153 958 q 360 978 285 978 q 501 972 433 978 q 622 950 569 967 q 705 902 674 933 q 736 818 736 871 q 724 728 736 765 q 690 669 711 692 q 641 635 668 646 q 585 625 614 625 q 515 629 546 625 q 454 638 485 633 q 389 647 424 643 q 307 651 354 651 z "},"G":{"ha":771,"x_min":0,"x_max":743,"o":"m 707 279 q 713 240 707 257 q 725 206 718 222 q 738 172 732 190 q 743 131 743 154 q 706 39 743 78 q 607 0 669 0 q 565 2 583 0 q 533 7 547 4 q 506 14 518 10 q 451 7 481 10 q 393 2 426 4 q 324 0 360 0 q 181 35 242 0 q 79 133 119 71 q 19 278 39 194 q 0 460 0 363 q 24 678 0 581 q 92 843 47 775 q 205 948 138 911 q 360 985 272 985 q 513 967 446 985 q 626 919 581 949 q 696 850 672 889 q 719 769 719 811 q 681 649 719 686 q 574 611 642 611 q 490 620 524 611 q 424 641 456 629 q 358 662 393 653 q 269 671 322 671 q 201 656 228 671 q 160 617 175 640 q 139 564 144 593 q 133 507 133 535 q 149 417 133 458 q 192 345 165 375 q 253 298 218 315 q 328 281 289 281 q 433 293 404 281 q 465 326 461 306 q 460 375 469 347 q 451 433 451 403 q 459 479 451 457 q 483 519 467 501 q 528 547 500 536 q 594 558 556 558 q 704 526 665 558 q 743 440 743 493 q 738 394 743 414 q 725 358 732 375 q 713 322 718 340 q 707 279 707 304 z "},"H":{"ha":842,"x_min":0,"x_max":813,"o":"m 813 822 q 797 725 813 769 q 763 641 782 681 q 729 564 744 601 q 714 489 714 526 q 729 415 714 451 q 763 339 744 378 q 797 256 782 300 q 813 160 813 213 q 765 40 813 81 q 628 0 717 0 q 490 40 539 0 q 442 160 442 81 q 455 242 442 204 q 488 313 468 279 q 494 353 494 332 q 485 394 493 375 q 458 425 476 413 q 407 438 439 438 q 357 425 376 438 q 328 394 338 413 q 319 353 319 375 q 325 313 319 332 q 358 242 344 279 q 371 160 371 204 q 323 40 371 81 q 186 0 275 0 q 49 40 97 0 q 0 160 0 81 q 16 256 0 213 q 51 339 32 300 q 85 415 69 378 q 100 489 100 451 q 85 564 100 526 q 51 641 69 601 q 16 725 32 681 q 0 822 0 769 q 49 940 0 901 q 186 978 97 978 q 323 940 275 978 q 371 822 371 901 q 359 746 371 782 q 332 678 347 710 l 332 678 q 319 634 322 658 q 325 589 317 610 q 353 553 333 568 q 407 539 372 539 q 460 553 440 539 q 488 589 479 568 q 494 634 496 610 q 482 678 492 658 l 482 678 q 453 746 465 710 q 442 822 442 782 q 490 940 442 901 q 628 978 539 978 q 765 940 717 978 q 813 822 813 901 z "},"J":{"ha":704,"x_min":0,"x_max":676,"o":"m 0 213 q 34 311 0 275 q 124 347 68 347 q 172 340 150 347 q 215 324 194 332 q 256 308 236 315 q 299 300 276 300 q 360 323 336 300 q 397 376 383 346 q 415 438 410 407 q 419 483 419 468 q 399 558 419 524 q 355 627 379 592 q 310 702 331 663 q 290 793 290 742 q 346 926 290 875 q 490 978 401 978 q 628 926 579 978 q 676 788 676 874 q 663 700 676 739 q 632 627 649 661 q 601 560 615 593 q 588 489 588 526 q 601 425 588 451 q 632 372 615 399 q 663 312 649 344 q 676 229 676 279 q 647 113 676 157 q 571 43 617 68 q 472 9 525 18 q 372 0 418 0 q 311 3 349 0 q 233 13 274 6 q 150 35 192 21 q 75 72 108 49 q 21 131 42 96 q 0 213 0 165 z "},"L":{"ha":715,"x_min":0,"x_max":686,"o":"m 0 797 q 48 929 0 881 q 179 978 96 978 q 251 963 219 978 q 306 922 283 947 q 342 865 329 897 q 354 797 354 832 q 340 705 354 744 q 310 631 326 665 q 281 565 294 597 q 267 493 267 532 q 267 450 267 476 q 277 399 267 424 q 312 358 288 375 q 386 340 336 340 l 538 340 q 647 308 608 340 q 686 200 686 275 q 656 94 686 133 q 577 33 625 54 q 469 6 529 13 q 349 0 408 0 q 224 9 285 0 q 116 42 164 18 q 39 110 68 67 q 10 224 10 154 q 24 310 10 276 q 57 373 39 344 q 90 428 75 401 q 104 493 104 456 q 88 562 104 532 q 52 624 72 592 q 16 697 32 656 q 0 797 0 738 z "},"M":{"ha":1140,"x_min":0,"x_max":1106,"o":"m 1106 797 q 1090 704 1106 744 q 1054 628 1074 664 q 1019 560 1035 593 q 1003 489 1003 526 q 1017 418 1003 451 q 1047 349 1031 385 q 1076 274 1063 314 q 1090 181 1090 233 q 1042 51 1090 101 q 907 0 994 0 q 769 51 818 0 q 721 181 721 101 q 740 274 721 233 q 781 349 758 314 q 822 418 803 385 q 840 489 840 451 q 815 557 840 526 q 781 571 800 575 q 756 550 763 567 q 742 497 747 529 q 731 430 738 465 q 715 359 725 394 q 686 295 706 324 q 635 249 667 267 q 553 231 603 231 q 471 249 503 231 q 419 295 439 267 q 389 359 399 324 q 374 430 379 394 q 364 497 368 465 q 350 550 360 529 q 324 571 343 567 q 290 557 306 575 q 265 489 265 526 q 284 418 265 451 q 325 349 303 385 q 366 274 347 314 q 385 181 385 233 q 336 51 385 101 q 199 0 288 0 q 63 51 110 0 q 15 181 15 101 q 29 274 15 233 q 59 349 43 314 q 89 418 75 385 q 103 489 103 451 q 87 560 103 526 q 51 628 71 593 q 16 704 32 664 q 0 797 0 744 q 15 869 0 836 q 55 926 29 903 q 117 964 81 950 q 199 978 154 978 q 403 919 336 978 q 469 725 469 860 q 488 592 469 638 q 553 547 506 546 q 617 592 599 546 q 635 725 635 638 q 701 919 635 860 q 907 978 768 978 q 988 964 951 978 q 1051 926 1025 950 q 1091 869 1076 903 q 1106 797 1106 836 z "},"N":{"ha":904,"x_min":0,"x_max":869,"o":"m 869 797 q 853 704 869 744 q 817 628 836 664 q 781 560 797 593 q 764 489 764 526 q 781 418 764 451 q 817 349 797 385 q 853 274 836 314 q 869 181 869 233 q 855 108 869 142 q 815 51 840 75 q 752 13 789 26 q 671 0 715 0 q 529 43 572 0 q 486 165 486 86 q 479 227 486 190 q 460 306 472 264 q 431 388 449 347 q 393 463 414 429 q 349 517 372 496 q 299 538 325 538 q 273 524 283 538 q 261 489 263 511 q 278 418 261 451 q 316 349 296 385 q 353 274 336 314 q 371 181 371 233 q 323 51 371 101 q 186 0 275 0 q 49 51 97 0 q 0 181 0 101 q 16 274 0 233 q 52 349 32 314 q 88 418 72 385 q 104 489 104 451 q 88 560 104 526 q 52 628 72 593 q 16 704 32 664 q 0 797 0 744 q 45 924 0 874 q 174 978 90 974 q 327 937 272 978 q 382 797 382 896 q 400 690 382 744 q 447 590 418 635 q 510 516 475 544 q 576 488 544 488 q 598 494 589 488 q 607 515 607 501 q 590 583 607 554 q 552 640 572 611 q 515 706 532 669 q 497 797 497 743 q 546 927 497 876 q 683 978 594 978 q 821 927 772 978 q 869 797 869 876 z "},"O":{"ha":732,"x_min":0,"x_max":711,"o":"m 356 985 q 519 944 451 985 q 628 834 586 903 q 691 676 671 765 q 711 489 711 586 q 691 302 711 392 q 628 144 671 213 q 519 34 586 75 q 356 -7 451 -7 q 192 34 260 -7 q 83 144 125 75 q 20 302 40 213 q 0 489 0 392 q 20 676 0 586 q 83 834 40 765 q 192 944 125 903 q 356 985 260 985 m 356 371 q 451 376 406 371 q 533 396 497 382 q 589 432 568 410 q 610 489 610 454 q 589 547 610 524 q 533 583 568 569 q 451 601 497 596 q 356 607 406 607 q 260 601 306 607 q 178 583 214 596 q 122 547 143 569 q 101 489 101 524 q 122 432 101 454 q 178 396 143 410 q 260 376 214 382 q 356 371 306 371 z "},"Q":{"ha":740,"x_min":0,"x_max":711,"o":"m 547 29 q 569 -7 547 7 q 619 -37 592 -21 q 672 -78 647 -54 q 701 -144 696 -103 q 674 -232 708 -200 q 586 -264 639 -264 q 490 -226 526 -264 q 454 -135 454 -189 q 464 -87 454 -107 q 474 -53 474 -68 q 466 -6 474 -18 q 443 6 458 6 q 406 -1 428 6 q 356 -7 385 -7 q 192 34 260 -7 q 83 144 125 75 q 20 302 40 213 q 0 489 0 392 q 20 675 0 586 q 83 831 40 764 q 192 938 125 899 q 356 978 260 978 q 519 938 451 978 q 628 831 586 899 q 691 675 671 764 q 711 489 711 586 q 678 255 711 364 q 574 79 646 146 q 547 29 547 56 m 101 489 q 122 432 101 454 q 178 396 143 410 q 260 376 214 382 q 356 371 306 371 q 451 376 406 371 q 533 396 497 382 q 589 432 568 410 q 610 489 610 454 q 589 547 610 524 q 533 583 568 569 q 451 601 497 596 q 356 607 406 607 q 260 601 306 607 q 178 583 214 596 q 122 547 143 569 q 101 489 101 524 z "},"S":{"ha":732,"x_min":0,"x_max":697,"o":"m 563 603 q 497 611 525 603 q 443 630 469 619 q 388 649 417 640 q 318 657 358 657 q 279 648 294 657 q 264 621 264 639 q 296 578 264 596 q 376 542 328 560 q 481 504 425 525 q 585 453 536 483 q 665 378 633 422 q 697 268 697 333 q 673 163 697 213 q 602 75 649 113 q 488 15 556 38 q 331 -7 419 -7 q 198 4 258 -7 q 94 38 138 15 q 25 96 50 61 q 0 176 0 131 q 7 244 0 211 q 30 301 14 276 q 72 341 46 326 q 135 356 97 356 q 218 345 185 356 q 278 322 251 335 q 328 298 304 308 q 385 288 351 288 q 425 299 408 288 q 442 333 442 311 q 409 377 442 360 q 328 411 376 394 q 224 449 281 428 q 119 501 167 469 q 38 579 71 532 q 6 697 6 626 q 35 817 6 764 q 115 908 64 871 q 235 965 165 946 q 383 985 304 985 q 517 965 458 985 q 615 911 575 944 q 674 835 654 878 q 694 747 694 792 q 655 642 694 681 q 563 603 615 603 z "},"U":{"ha":892,"x_min":0,"x_max":857,"o":"m 857 817 q 840 722 857 765 q 802 639 822 678 q 765 563 782 600 q 747 489 747 526 q 763 415 747 451 q 797 339 778 378 q 831 256 815 300 q 846 160 846 213 q 840 99 846 128 q 819 48 833 69 q 781 13 804 26 q 725 0 758 0 q 624 28 660 0 q 589 110 589 56 q 592 136 589 126 q 598 153 594 146 q 604 167 601 161 q 607 182 607 174 q 600 199 607 192 q 582 207 593 207 q 555 190 567 207 q 529 148 543 174 q 496 93 515 122 q 445 38 476 64 q 367 -4 414 13 q 253 -21 321 -21 q 161 -2 200 -21 q 97 48 122 17 q 58 118 71 79 q 46 196 46 157 q 56 287 46 249 q 78 357 65 325 q 100 420 90 389 q 110 489 110 451 q 92 563 110 526 q 55 639 75 600 q 17 722 35 678 q 0 817 0 765 q 49 937 0 896 q 186 978 97 978 q 323 937 275 978 q 371 817 371 896 q 358 726 371 765 q 330 654 346 688 q 301 589 314 621 q 289 519 289 557 q 331 388 289 433 q 444 343 374 343 q 505 356 481 343 q 544 392 529 369 q 567 442 560 414 q 574 500 574 469 q 560 572 574 538 q 530 644 546 607 q 500 723 514 681 q 486 817 486 765 q 535 937 486 896 q 672 978 583 978 q 809 937 761 978 q 857 817 857 896 z "},"V":{"ha":969,"x_min":0,"x_max":942,"o":"m 942 797 q 927 698 942 746 q 894 610 913 650 q 859 541 875 571 q 839 494 843 511 q 787 294 817 385 q 715 138 757 203 q 613 36 672 72 q 471 0 553 0 q 339 37 396 0 q 238 139 282 74 q 161 294 194 204 q 100 489 128 383 q 80 535 96 504 q 46 608 64 567 q 14 697 28 649 q 0 797 0 746 q 9 871 0 838 q 40 928 18 904 q 97 965 61 951 q 186 979 133 979 q 338 928 290 979 q 386 797 386 876 q 374 706 386 746 q 348 632 363 667 q 321 565 333 597 q 308 494 308 532 q 322 414 308 454 q 358 341 335 374 q 410 288 381 308 q 471 267 439 267 q 529 288 500 267 q 581 341 558 308 q 618 414 604 374 q 632 494 632 454 q 620 565 632 532 q 594 632 608 597 q 567 706 579 667 q 556 797 556 746 q 601 928 556 876 q 756 979 647 979 q 845 965 810 979 q 902 928 881 951 q 933 871 924 904 q 942 797 942 838 z "},"W":{"ha":1276,"x_min":0,"x_max":1247,"o":"m 1247 797 q 1228 704 1247 744 q 1187 628 1210 664 q 1144 560 1164 593 q 1125 489 1125 526 q 1130 412 1125 451 q 1140 333 1135 372 q 1151 256 1146 294 q 1156 181 1156 218 q 1136 102 1156 136 q 1085 45 1117 68 q 1011 11 1053 22 q 925 0 969 0 q 833 6 881 0 q 751 30 786 11 q 701 85 715 49 q 707 181 686 121 q 719 276 722 225 q 701 371 715 328 q 665 442 686 414 q 624 471 644 471 q 582 442 603 471 q 547 371 561 414 q 530 276 533 328 q 540 181 526 225 q 547 85 561 121 q 497 30 532 49 q 414 6 461 11 q 322 0 367 0 q 236 11 278 0 q 163 45 194 22 q 111 102 131 68 q 92 181 92 136 q 97 256 92 218 q 108 333 101 294 q 119 412 114 372 q 124 489 124 451 q 104 560 124 526 q 62 628 85 593 q 19 704 39 664 q 0 797 0 744 q 47 927 0 876 q 183 978 94 978 q 321 927 272 978 q 369 797 369 876 q 355 704 369 744 q 322 628 340 664 q 290 560 304 593 q 275 489 275 526 q 284 455 275 469 q 308 426 293 440 q 347 415 328 413 q 381 426 365 418 q 426 458 403 439 q 468 498 449 476 q 500 544 488 519 q 513 590 513 568 q 506 633 513 614 q 492 670 500 651 q 477 707 483 689 q 471 746 471 725 q 482 789 471 767 q 513 829 493 811 q 561 858 533 847 q 624 869 589 869 q 687 858 658 869 q 735 829 715 847 q 765 789 754 811 q 776 746 776 767 q 770 705 776 724 q 756 669 764 686 q 741 633 747 651 q 735 590 735 614 q 747 544 735 568 q 779 498 760 519 q 822 458 799 476 q 868 426 846 439 q 902 415 883 418 q 940 426 921 413 q 964 455 956 440 q 972 489 972 469 q 958 560 972 526 q 925 628 943 593 q 892 704 907 664 q 878 797 878 744 q 926 927 878 876 q 1064 978 975 978 q 1200 927 1153 978 q 1247 797 1247 876 z "},"X":{"ha":846,"x_min":0,"x_max":818,"o":"m 558 492 q 578 460 558 478 q 626 419 597 442 q 688 369 654 396 q 751 310 722 342 q 799 241 779 278 q 818 164 818 204 q 766 40 818 81 q 633 0 714 0 q 563 10 597 0 q 503 40 529 21 q 460 85 476 58 q 444 142 444 111 q 448 173 444 158 q 456 201 451 188 q 463 231 460 215 q 467 265 467 246 q 448 333 467 307 q 408 360 429 360 q 370 335 389 360 q 351 265 351 311 q 355 231 351 246 q 363 201 358 215 q 370 173 367 188 q 374 142 374 158 q 358 85 374 111 q 315 40 342 58 q 255 10 289 21 q 185 0 221 0 q 52 40 104 0 q 0 164 0 81 q 19 251 0 210 q 65 326 38 292 q 124 390 92 361 q 184 440 157 418 q 230 477 211 463 q 249 500 249 492 q 230 524 249 508 q 184 560 211 539 q 124 610 157 582 q 65 669 92 638 q 19 738 38 701 q 0 814 0 774 q 52 938 0 897 q 185 978 104 978 q 255 967 221 978 q 315 938 289 957 q 358 893 342 919 q 374 836 374 867 q 370 797 374 811 q 363 772 367 783 q 355 751 358 761 q 351 721 351 740 q 368 658 351 685 q 408 631 385 631 q 449 656 431 631 q 467 721 467 681 q 463 751 467 740 q 456 772 460 761 q 448 797 451 783 q 444 836 444 811 q 460 893 444 867 q 503 938 476 919 q 563 967 529 957 q 633 978 597 978 q 766 938 714 978 q 818 814 818 897 q 799 738 818 774 q 751 672 779 703 q 688 614 722 640 q 626 565 654 588 q 578 525 597 543 q 558 492 558 507 z "},"Y":{"ha":815,"x_min":-4,"x_max":786,"o":"m 786 814 q 778 728 786 765 q 760 657 769 690 q 743 590 751 624 q 735 513 735 556 q 741 422 735 454 q 754 362 747 389 q 767 303 761 335 q 774 214 774 271 q 755 115 774 156 q 694 49 736 75 q 585 12 653 24 q 418 0 517 0 q 237 19 306 0 q 131 69 168 39 q 81 133 93 99 q 69 199 69 168 q 101 310 69 265 q 189 356 133 356 q 253 351 218 356 q 323 341 288 346 q 393 331 358 336 q 457 326 428 326 q 524 340 497 326 q 550 390 550 354 q 481 444 550 444 q 434 436 454 444 q 389 417 414 428 q 329 398 364 407 q 242 389 294 389 q 154 401 194 389 q 85 438 114 414 q 43 500 57 463 q 33 588 29 538 q 35 653 36 626 q 32 703 35 679 q 23 752 29 726 q 7 814 17 778 q 5 885 -4 854 q 36 936 14 915 q 92 967 58 957 q 167 978 126 978 q 285 938 240 978 q 331 836 331 899 q 322 756 331 801 q 313 672 313 711 q 319 636 313 654 q 336 604 325 618 q 361 582 347 590 q 392 574 375 574 q 448 602 426 574 q 469 669 469 631 q 458 747 469 707 q 447 836 447 786 q 497 938 447 899 q 621 978 547 978 q 744 938 701 978 q 786 814 786 897 z "},"Z":{"ha":726,"x_min":0,"x_max":697,"o":"m 569 331 q 632 316 607 331 q 672 278 657 301 q 692 222 686 254 q 697 156 697 190 q 666 69 697 100 q 583 22 635 38 q 465 3 532 7 q 326 0 399 0 q 173 12 235 0 q 72 50 111 24 q 17 119 33 76 q 0 224 0 163 q 28 310 0 268 q 99 392 56 353 q 195 469 142 432 q 300 538 249 506 q 368 587 346 565 q 396 622 390 608 q 392 643 401 636 q 368 650 383 650 q 317 649 339 650 q 269 649 294 649 q 212 648 244 649 q 129 647 179 647 q 65 662 90 647 q 26 700 40 676 q 6 756 11 724 q 0 822 0 788 q 31 909 0 878 q 114 956 63 940 q 233 976 165 972 q 372 979 300 979 q 525 974 463 979 q 626 945 588 968 q 681 878 664 922 q 697 754 697 833 q 672 664 697 708 q 607 578 647 619 q 516 501 567 538 q 413 435 465 465 q 331 380 357 403 q 298 343 304 357 q 302 323 292 329 q 329 317 313 317 q 381 319 358 317 q 428 324 403 321 q 485 328 453 326 q 569 331 518 331 z "},"b":{"ha":700,"x_min":0,"x_max":665,"o":"m 56 531 q 47 662 56 606 q 28 764 39 718 q 9 849 18 810 q 0 931 0 889 q 35 1040 0 1001 q 146 1079 71 1079 q 263 1040 221 1079 q 304 931 304 1001 q 295 865 304 897 q 278 808 286 833 q 270 767 271 782 q 285 751 269 751 q 313 756 301 751 q 336 764 324 760 q 366 772 349 768 q 413 776 383 776 q 526 742 479 776 q 605 652 574 708 q 651 524 636 596 q 665 375 665 451 q 647 235 665 303 q 592 116 628 168 q 505 32 557 64 q 385 0 453 0 q 324 3 347 0 q 283 8 300 6 q 251 14 265 11 q 219 17 238 17 q 192 14 203 17 q 170 8 181 11 q 148 3 160 6 q 117 0 136 0 q 30 42 56 0 q 4 147 4 85 q 13 228 4 189 q 30 313 21 268 q 47 410 39 357 q 56 531 56 463 m 369 317 q 425 320 397 317 q 474 331 453 324 q 510 352 496 339 q 524 385 524 365 q 510 417 524 404 q 474 438 496 431 q 425 449 453 446 q 369 453 397 453 q 281 439 315 453 q 246 385 246 425 q 281 331 246 344 q 369 317 315 317 z "},"c":{"ha":586,"x_min":0,"x_max":557,"o":"m 224 310 q 272 315 250 310 q 315 327 293 321 q 363 338 336 333 q 424 343 389 343 q 522 313 486 343 q 557 214 557 282 q 491 44 557 94 q 292 -7 425 -7 q 162 26 217 -7 q 71 113 107 58 q 17 238 35 167 q 0 385 0 308 q 17 532 0 461 q 70 657 35 603 q 160 744 106 711 q 290 776 215 776 q 488 709 424 776 q 551 531 551 642 q 518 440 551 475 q 433 404 485 404 q 374 414 399 404 q 328 436 350 424 q 281 458 306 449 q 221 468 257 468 q 164 447 186 468 q 142 385 142 425 q 165 328 142 347 q 224 310 188 310 z "},"d":{"ha":693,"x_min":0,"x_max":683,"o":"m 668 121 q 636 34 668 68 q 549 0 604 0 q 516 3 529 0 q 493 8 503 6 q 474 14 483 11 q 450 17 464 17 q 417 14 432 17 q 384 8 401 11 q 345 3 367 6 q 292 0 324 0 q 162 31 217 0 q 71 116 107 63 q 17 239 35 169 q 0 385 0 308 q 15 532 0 461 q 61 658 31 603 q 138 745 92 713 q 244 778 183 778 q 288 774 269 778 q 319 767 306 771 q 342 760 332 764 q 363 757 353 757 q 384 764 379 757 q 387 788 389 771 q 381 835 385 806 q 378 908 378 864 q 422 1038 379 996 q 536 1079 465 1079 q 604 1065 576 1079 q 649 1028 632 1051 q 675 974 667 1006 q 683 908 683 943 q 674 801 683 846 q 651 719 664 757 q 629 640 639 681 q 619 543 619 600 q 627 411 619 471 q 644 301 635 351 q 660 206 653 250 q 668 121 668 163 m 419 385 q 385 439 419 425 q 296 453 350 453 q 240 449 268 453 q 191 438 213 446 q 156 417 169 431 q 142 385 142 404 q 156 352 142 365 q 191 331 169 339 q 240 320 213 324 q 296 317 268 317 q 385 331 350 317 q 419 385 419 344 z "},"e":{"ha":625,"x_min":0,"x_max":604,"o":"m 468 335 q 526 322 500 335 q 569 286 551 308 q 595 235 586 264 q 604 178 604 207 q 583 101 604 135 q 523 42 561 67 q 431 6 485 18 q 315 -7 378 -7 q 165 26 225 -7 q 67 113 104 58 q 15 238 31 167 q 0 385 0 308 q 17 527 0 457 q 70 653 33 597 q 167 742 107 708 q 311 776 226 776 q 433 758 381 776 q 522 710 486 740 q 576 641 558 679 q 594 561 594 603 q 569 460 594 499 q 501 399 543 421 q 403 371 458 378 q 289 367 349 364 q 251 359 263 368 q 239 339 239 350 q 249 318 239 328 q 278 308 260 308 q 332 313 310 308 q 375 322 354 317 q 417 331 396 326 q 468 335 439 335 m 193 518 q 231 476 193 486 q 322 467 269 465 q 408 481 378 468 q 438 521 438 493 q 401 560 436 547 q 317 574 367 574 q 271 571 293 574 q 231 562 249 568 q 203 544 214 556 q 193 518 193 533 z "},"f":{"ha":688,"x_min":0,"x_max":674,"o":"m 396 839 q 342 815 364 839 q 319 757 319 792 q 333 678 319 697 q 365 658 347 658 q 404 665 386 658 q 440 679 422 671 q 476 694 458 688 q 514 700 494 700 q 588 675 560 700 q 615 613 615 650 q 588 549 615 572 q 514 526 561 526 q 474 531 490 526 q 442 540 457 535 q 415 550 428 546 q 385 554 401 554 q 349 539 358 554 q 340 506 340 524 q 350 403 340 449 q 372 316 360 358 q 393 231 383 274 q 403 138 403 189 q 359 35 403 72 q 249 -1 315 -1 q 133 38 174 -1 q 93 142 93 76 q 100 240 93 203 q 116 313 107 278 q 132 388 125 347 q 139 499 139 429 q 133 532 139 518 q 110 546 126 546 q 88 543 94 546 q 61 540 82 540 q 17 555 33 540 q 0 601 0 569 q 18 650 0 633 q 65 667 36 667 q 88 665 76 667 q 109 663 100 663 q 122 672 118 664 q 122 699 126 679 q 103 792 111 744 q 94 893 94 839 q 134 1030 94 982 q 235 1078 174 1078 q 271 1074 257 1078 q 297 1067 285 1071 q 319 1060 308 1064 q 344 1057 329 1057 q 372 1060 360 1057 q 397 1067 383 1064 q 431 1074 411 1071 q 482 1078 451 1078 q 626 1034 578 1078 q 674 914 674 990 q 640 835 674 863 q 564 807 606 807 q 519 812 538 807 q 485 823 501 817 q 448 834 468 829 q 396 839 428 839 z "},"g":{"ha":786,"x_min":0,"x_max":758,"o":"m 592 672 q 597 640 592 661 q 610 591 603 619 q 622 525 617 563 q 628 443 628 488 q 612 319 628 378 q 560 215 596 260 q 469 142 525 169 q 335 115 414 115 q 315 101 315 115 q 335 88 315 88 q 389 90 356 88 q 461 90 422 92 q 540 82 500 89 q 613 58 581 75 q 666 10 646 40 q 686 -69 686 -21 q 658 -182 686 -136 q 583 -256 631 -228 q 472 -297 535 -285 q 339 -310 410 -310 q 210 -297 272 -310 q 102 -260 149 -285 q 28 -201 56 -236 q 0 -122 0 -167 q 37 -33 0 -67 q 139 0 74 0 q 212 -10 179 0 q 276 -33 244 -21 q 340 -55 307 -44 q 410 -65 372 -65 q 441 -56 431 -65 q 447 -35 451 -46 q 423 -14 443 -24 q 365 -4 403 -4 q 169 24 229 -4 q 108 89 108 51 q 169 160 108 140 q 73 278 103 203 q 43 443 43 354 q 59 571 43 508 q 110 682 75 633 q 201 760 146 731 q 335 790 257 790 q 393 784 369 790 q 435 771 417 778 q 472 758 454 764 q 511 751 489 751 q 531 763 524 751 q 546 793 539 775 q 560 833 553 811 q 581 872 568 854 q 615 902 594 890 q 665 914 635 914 q 734 884 710 914 q 758 814 758 854 q 728 740 758 772 q 644 708 699 708 q 606 701 621 708 q 592 672 592 693 m 335 372 q 403 376 371 372 q 461 387 436 379 q 501 408 486 394 q 517 443 517 422 q 501 477 517 464 q 461 499 486 490 q 403 510 436 507 q 335 514 371 514 q 267 510 300 514 q 210 499 235 507 q 169 477 185 490 q 154 443 154 464 q 169 408 154 422 q 210 387 185 394 q 267 376 235 379 q 335 372 300 372 z "},"h":{"ha":789,"x_min":0,"x_max":768,"o":"m 690 403 q 703 341 690 369 q 730 283 715 313 q 756 222 744 254 q 768 147 768 189 q 726 38 768 76 q 610 0 685 0 q 493 38 535 0 q 451 147 451 76 q 458 209 451 183 q 474 256 465 235 q 490 301 483 278 q 497 356 497 324 q 491 404 497 379 q 472 450 485 429 q 440 485 460 471 q 390 499 419 499 q 300 467 328 499 q 272 378 272 436 q 283 322 272 350 q 306 265 293 293 q 330 207 319 236 q 340 147 340 178 q 292 38 340 76 q 168 0 243 0 q 51 38 93 0 q 10 147 10 76 q 18 233 10 189 q 36 322 26 278 q 54 408 46 365 q 63 489 63 451 q 53 585 63 526 q 31 706 43 643 q 10 829 19 769 q 0 931 0 889 q 40 1040 0 1001 q 149 1079 81 1079 q 258 1040 215 1079 q 300 931 300 1001 q 290 863 300 896 q 278 803 281 829 q 286 760 275 776 q 339 743 297 743 q 367 749 353 743 q 400 760 381 754 q 447 772 419 767 q 517 776 475 776 q 595 765 558 776 q 660 733 632 754 q 706 683 689 713 q 722 617 722 653 q 717 554 722 579 q 706 507 713 529 q 695 461 700 485 q 690 403 690 438 z "},"i":{"ha":328,"x_min":0,"x_max":307,"o":"m 307 138 q 263 36 307 72 q 153 0 219 0 q 44 36 88 0 q 0 138 0 72 q 8 209 0 179 q 24 265 15 239 q 40 319 32 292 q 47 385 47 347 q 41 450 47 422 q 26 504 35 478 q 12 560 18 531 q 6 632 6 590 q 47 733 6 697 q 153 769 88 769 q 260 733 219 769 q 301 632 301 697 q 295 560 301 590 q 281 504 289 531 q 266 450 272 478 q 260 385 260 422 q 267 319 260 347 q 283 265 275 292 q 299 209 292 239 q 307 138 307 179 m 153 1004 q 69 977 94 1004 q 44 901 44 950 q 69 826 44 853 q 153 799 94 799 q 238 826 213 799 q 263 901 263 853 q 238 977 263 950 q 153 1004 213 1004 z "},"j":{"ha":589,"x_min":0,"x_max":554,"o":"m 540 214 q 533 138 540 176 q 501 69 526 100 q 424 18 475 38 q 288 -1 374 -1 q 175 10 228 -1 q 83 44 122 22 q 22 99 44 67 q 0 174 0 132 q 8 228 0 199 q 34 282 17 257 q 79 323 51 307 q 146 339 107 339 q 180 333 165 339 q 208 319 194 326 q 233 306 221 313 q 261 300 246 300 q 301 333 289 300 q 313 410 313 365 q 306 456 313 433 q 291 506 299 479 q 276 564 283 532 q 269 638 269 596 q 309 738 269 707 q 411 769 349 769 q 516 733 478 769 q 554 632 554 697 q 548 572 554 597 q 535 524 542 546 q 522 483 528 503 q 515 439 515 464 q 519 378 515 404 q 528 326 524 351 q 536 275 532 301 q 540 214 540 249 m 414 1004 q 330 977 354 1004 q 306 901 306 950 q 330 826 306 853 q 414 799 354 799 q 499 826 474 799 q 524 901 524 853 q 499 977 524 950 q 414 1004 474 1004 z "},"k":{"ha":738,"x_min":0,"x_max":722,"o":"m 421 474 q 443 444 421 458 q 499 411 465 429 q 572 371 532 393 q 644 319 611 349 q 700 249 678 289 q 722 158 722 210 q 708 91 722 121 q 671 41 694 61 q 616 10 647 21 q 550 0 585 0 q 439 44 475 0 q 403 163 403 89 q 384 301 403 254 q 317 347 365 347 q 291 338 301 347 q 281 313 281 328 q 286 274 281 290 q 299 240 292 257 q 311 201 306 222 q 317 147 317 179 q 275 38 317 76 q 158 0 233 0 q 42 38 83 0 q 0 147 0 76 q 7 243 0 189 q 22 353 14 297 q 36 462 29 410 q 43 553 43 514 q 36 639 43 590 q 22 739 29 688 q 7 840 14 790 q 0 931 0 889 q 42 1040 0 1001 q 158 1079 83 1079 q 275 1040 233 1079 q 317 931 317 1001 q 303 811 317 871 q 277 705 289 751 q 263 629 265 658 q 282 600 260 600 q 309 615 297 600 q 333 653 321 631 q 360 703 344 676 q 399 752 375 729 q 456 790 422 775 q 540 806 490 806 q 598 795 574 806 q 639 769 622 785 q 663 733 656 753 q 671 692 671 713 q 652 625 671 653 q 606 577 633 597 q 546 542 578 557 q 486 517 514 528 q 440 496 458 506 q 421 474 421 486 z "},"l":{"ha":346,"x_min":0,"x_max":318,"o":"m 244 553 q 256 462 244 514 q 281 353 268 410 q 306 243 294 297 q 318 147 318 189 q 276 38 318 76 q 158 0 233 0 q 42 38 83 0 q 0 147 0 76 q 11 243 0 189 q 36 353 22 297 q 61 462 50 410 q 72 553 72 514 q 61 639 72 590 q 36 739 50 688 q 11 840 22 790 q 0 931 0 889 q 42 1040 0 1001 q 158 1079 83 1079 q 275 1040 233 1079 q 317 931 317 1001 q 306 840 317 889 q 281 739 294 790 q 256 639 267 688 q 244 553 244 590 z "},"m":{"ha":1106,"x_min":0,"x_max":1078,"o":"m 1011 415 q 1022 347 1011 378 q 1044 285 1032 315 q 1067 222 1057 254 q 1078 147 1078 189 q 1036 38 1078 76 q 919 0 994 0 q 803 38 844 0 q 761 147 761 76 q 775 212 761 183 q 805 267 789 240 q 835 320 821 293 q 849 382 849 347 q 842 424 849 403 q 822 464 836 446 q 783 494 807 482 q 725 506 760 506 q 633 401 633 506 q 640 339 633 368 q 653 281 646 310 q 667 219 661 251 q 674 147 674 188 q 642 42 674 85 q 547 0 610 0 q 451 44 485 0 q 418 147 418 88 q 424 212 418 183 q 438 265 431 240 q 452 315 446 290 q 458 368 458 339 q 452 418 458 393 q 433 463 446 443 q 397 494 419 482 q 340 506 374 506 q 270 476 293 506 q 247 396 247 447 q 259 321 247 351 q 285 263 271 290 q 310 210 299 236 q 322 147 322 183 q 281 38 322 76 q 164 0 239 0 q 47 38 89 0 q 6 147 6 76 q 15 217 6 189 q 34 269 24 244 q 53 321 44 294 q 63 385 63 347 q 53 458 63 422 q 31 526 43 493 q 10 588 19 558 q 0 642 0 617 q 35 741 0 713 q 138 769 71 769 q 190 763 168 769 q 230 748 213 756 q 261 733 247 740 q 290 726 275 726 q 318 733 307 726 q 344 748 329 740 q 382 763 358 756 q 446 769 406 769 q 523 763 492 769 q 576 748 554 756 q 615 733 599 740 q 644 726 631 726 q 669 733 657 726 q 698 748 681 740 q 743 763 715 756 q 815 769 771 769 q 906 753 865 769 q 976 710 947 738 q 1022 649 1006 683 q 1038 575 1038 614 q 1033 533 1038 550 q 1024 501 1029 517 q 1015 465 1019 485 q 1011 415 1011 446 z "},"n":{"ha":772,"x_min":0,"x_max":743,"o":"m 675 415 q 685 347 675 378 q 709 285 696 315 q 733 222 722 254 q 743 147 743 189 q 701 38 743 76 q 585 0 660 0 q 468 38 510 0 q 426 147 426 76 q 438 212 426 183 q 461 266 449 240 q 485 317 474 292 q 496 375 496 343 q 490 426 496 403 q 467 469 483 450 q 426 498 451 488 q 361 508 400 508 q 314 502 336 508 q 275 481 292 496 q 248 443 258 467 q 238 385 238 419 q 250 317 238 343 q 278 267 263 290 q 306 216 293 243 q 318 147 318 189 q 276 38 318 76 q 160 0 235 0 q 43 38 85 0 q 1 147 1 76 q 12 217 1 189 q 34 269 22 244 q 56 321 46 294 q 67 385 67 347 q 56 458 67 422 q 33 526 46 493 q 10 588 21 558 q 0 642 0 617 q 35 741 0 713 q 138 769 71 769 q 195 763 171 769 q 238 748 219 756 q 272 733 257 740 q 299 726 286 726 q 330 733 315 726 q 365 748 344 740 q 416 763 386 756 q 493 769 446 769 q 583 756 543 769 q 651 718 624 742 q 694 662 679 694 q 710 593 710 629 q 704 542 710 563 q 692 503 699 521 q 681 465 686 485 q 675 415 675 446 z "},"o":{"ha":582,"x_min":0,"x_max":561,"o":"m 281 776 q 409 744 356 776 q 496 657 463 711 q 545 532 529 603 q 561 385 561 461 q 545 238 561 308 q 496 113 529 167 q 409 26 463 58 q 281 -7 356 -7 q 152 26 206 -7 q 65 113 99 58 q 16 238 32 167 q 0 385 0 308 q 16 532 0 461 q 65 657 32 603 q 152 744 99 711 q 281 776 206 776 m 281 317 q 333 320 308 317 q 377 331 358 324 q 408 352 396 339 q 419 385 419 365 q 408 417 419 404 q 377 438 396 431 q 333 449 358 446 q 281 453 308 453 q 228 449 253 453 q 183 438 203 446 q 153 417 164 431 q 142 385 142 404 q 183 331 142 346 q 281 317 225 317 z "},"p":{"ha":689,"x_min":0,"x_max":661,"o":"m 0 622 q 7 678 0 651 q 28 725 14 704 q 60 758 42 746 q 104 769 79 769 q 140 765 125 769 q 168 756 156 761 q 192 747 181 751 q 217 743 204 743 q 247 747 235 743 q 270 756 258 751 q 297 765 282 761 q 336 769 311 769 q 483 738 422 769 q 584 653 544 707 q 642 531 624 600 q 661 385 661 461 q 650 237 661 308 q 612 110 639 165 q 540 22 585 56 q 429 -11 496 -11 q 396 -8 411 -11 q 367 0 381 -4 q 342 8 354 4 q 314 11 329 11 q 297 1 300 11 q 295 -27 293 -8 q 301 -72 297 -46 q 306 -132 306 -99 q 265 -267 306 -224 q 158 -310 225 -310 q 47 -267 92 -310 q 1 -132 1 -224 q 10 -24 1 -68 q 27 61 18 19 q 44 151 36 103 q 53 271 53 199 q 44 363 53 318 q 26 452 36 408 q 8 538 17 496 q 0 622 0 581 m 242 379 q 277 325 242 339 q 374 311 313 311 q 424 315 399 311 q 471 326 450 318 q 506 347 492 333 q 519 379 519 360 q 506 413 519 399 q 471 435 492 426 q 424 449 450 444 q 374 453 399 453 q 277 436 313 453 q 242 379 242 419 z "},"q":{"ha":697,"x_min":0,"x_max":683,"o":"m 615 261 q 626 137 615 189 q 649 40 636 85 q 673 -47 663 -4 q 683 -144 683 -90 q 641 -262 683 -215 q 524 -310 599 -310 q 409 -271 449 -310 q 369 -161 369 -232 q 372 -76 369 -110 q 375 -23 375 -42 q 369 3 375 -4 q 347 11 364 11 q 322 8 335 11 q 292 2 308 6 q 255 -4 276 -1 q 201 -7 233 -7 q 107 26 146 -7 q 44 113 68 58 q 10 238 21 167 q 0 385 0 308 q 26 546 0 475 q 97 667 53 617 q 197 743 140 717 q 315 769 254 769 q 396 759 365 769 q 457 749 426 749 q 482 756 471 749 q 504 773 493 764 q 528 790 515 782 q 561 797 542 797 q 609 785 590 797 q 638 752 628 772 q 653 707 649 732 q 657 657 657 682 q 651 563 657 606 q 636 476 644 521 q 622 380 628 431 q 615 261 615 329 m 282 453 q 235 449 260 453 q 189 438 210 446 q 155 417 168 431 q 142 385 142 404 q 155 352 142 365 q 189 331 168 339 q 234 320 210 324 q 281 317 258 317 q 383 331 347 317 q 419 385 419 344 q 383 439 419 425 q 282 453 347 453 z "},"r":{"ha":636,"x_min":0,"x_max":608,"o":"m 418 779 q 506 761 469 779 q 565 715 542 743 q 598 653 588 686 q 608 589 608 619 q 584 508 608 542 q 507 474 560 474 q 459 478 479 474 q 421 486 439 482 q 384 494 403 490 q 342 499 365 499 q 304 490 321 499 q 277 466 288 481 q 261 435 267 451 q 256 403 256 418 q 265 328 256 358 q 286 270 275 297 q 307 213 297 243 q 317 138 317 182 q 275 36 317 72 q 167 0 233 0 q 58 36 100 0 q 15 138 15 72 q 24 209 15 179 q 41 265 32 239 q 58 319 50 292 q 67 385 67 347 q 56 450 67 422 q 33 504 46 478 q 10 560 21 531 q 0 632 0 590 q 36 733 0 697 q 139 769 72 769 q 186 766 168 769 q 217 758 204 763 q 239 749 229 753 q 261 746 249 746 q 288 751 276 746 q 315 763 300 757 q 354 774 331 769 q 418 779 378 779 z "},"s":{"ha":578,"x_min":0,"x_max":550,"o":"m 443 490 q 392 494 414 490 q 349 504 369 499 q 306 514 329 510 q 251 518 283 518 q 220 508 231 518 q 210 487 210 499 q 219 464 210 475 q 249 450 229 453 q 396 413 338 438 q 488 356 454 388 q 536 287 522 324 q 550 213 550 250 q 535 130 550 169 q 488 60 521 90 q 399 11 454 29 q 260 -7 343 -7 q 155 1 203 -7 q 73 27 107 10 q 19 72 39 44 q 0 135 0 99 q 6 188 0 163 q 24 234 11 214 q 56 266 36 254 q 106 278 76 278 q 172 272 146 278 q 217 258 197 265 q 256 245 238 251 q 300 239 275 239 q 330 249 319 239 q 341 271 340 258 q 332 294 342 283 q 301 306 322 304 q 183 330 238 310 q 90 381 129 350 q 28 453 50 413 q 6 539 6 493 q 76 711 6 646 q 303 776 147 776 q 484 728 421 776 q 547 596 547 681 q 516 517 547 544 q 443 490 485 490 z "},"t":{"ha":510,"x_min":0,"x_max":489,"o":"m 408 781 q 467 763 446 781 q 489 706 489 744 q 467 650 489 668 q 408 632 446 632 q 365 635 386 632 q 332 629 343 639 q 320 608 321 619 q 319 574 319 597 q 333 480 319 536 q 361 364 346 424 q 390 247 376 304 q 403 147 403 189 q 361 38 403 76 q 244 0 319 0 q 128 38 169 0 q 86 147 86 76 q 99 247 86 189 q 127 364 111 304 q 156 480 143 424 q 168 574 168 536 q 167 608 168 597 q 154 626 167 619 q 122 630 140 635 q 81 625 103 625 q 22 647 43 625 q 0 706 0 668 q 22 765 0 744 q 81 786 43 786 q 96 787 86 786 q 114 790 106 788 q 128 797 122 792 q 131 811 133 803 q 126 832 129 818 q 118 863 122 846 q 111 899 114 881 q 108 931 108 917 q 138 1040 108 1001 q 243 1079 168 1079 q 350 1040 318 1079 q 382 931 382 1001 q 379 899 382 917 q 372 864 376 881 q 365 833 368 847 q 358 808 361 818 q 362 792 357 799 q 375 784 367 786 q 393 781 383 782 q 408 781 403 781 z "},"u":{"ha":785,"x_min":0,"x_max":756,"o":"m 756 622 q 743 553 756 581 q 716 500 731 525 q 689 449 701 475 q 676 385 676 422 q 687 317 676 347 q 710 257 697 286 q 733 197 722 228 q 743 128 743 167 q 710 28 743 57 q 632 0 678 0 q 571 11 596 0 q 528 35 546 22 q 497 60 510 49 q 471 71 483 71 q 435 59 450 71 q 399 33 419 47 q 345 6 378 18 q 258 -7 313 -7 q 164 10 204 -7 q 98 56 124 28 q 59 119 72 83 q 46 194 46 156 q 49 236 46 219 q 57 269 53 253 q 65 304 61 285 q 68 354 68 324 q 58 423 68 392 q 34 485 47 454 q 10 548 21 515 q 0 622 0 581 q 42 731 0 693 q 158 769 83 769 q 275 731 233 769 q 317 622 317 693 q 306 558 317 586 q 281 504 294 529 q 256 455 267 479 q 244 401 244 431 q 252 349 244 376 q 277 301 260 322 q 322 265 294 279 q 388 251 349 251 q 435 257 413 251 q 474 277 457 263 q 503 318 492 292 q 518 385 515 344 q 506 449 518 422 q 478 500 493 475 q 451 553 464 525 q 439 622 439 581 q 481 731 439 693 q 597 769 522 769 q 714 731 672 769 q 756 622 756 693 z "},"v":{"ha":844,"x_min":0,"x_max":817,"o":"m 658 769 q 775 731 733 769 q 817 622 817 693 q 801 549 817 585 q 765 477 786 514 q 724 401 744 440 q 692 315 703 361 q 645 194 678 251 q 573 93 613 136 q 490 25 533 50 q 408 0 446 0 q 326 27 369 0 q 242 98 282 54 q 169 199 201 142 q 124 315 138 256 q 92 401 113 361 q 51 477 71 440 q 15 549 31 514 q 0 622 0 585 q 39 731 0 693 q 153 769 78 769 q 278 738 228 769 q 328 636 328 707 q 321 569 328 600 q 305 511 314 539 q 289 457 296 483 q 282 401 282 431 q 293 346 282 372 q 322 299 304 319 q 362 267 339 279 q 408 254 385 254 q 453 265 431 254 q 494 296 475 276 q 524 342 513 315 q 536 401 536 369 q 528 457 536 431 q 513 511 521 483 q 497 569 504 539 q 489 636 489 600 q 536 738 489 707 q 658 769 583 769 z "},"w":{"ha":1018,"x_min":0,"x_max":997,"o":"m 997 622 q 982 548 997 581 q 949 485 967 515 q 915 423 931 454 q 900 354 900 392 q 904 307 900 328 q 914 265 908 286 q 924 218 919 243 q 928 160 928 193 q 912 97 928 126 q 867 47 896 68 q 799 13 839 25 q 711 0 760 0 q 639 8 668 0 q 587 27 610 17 q 544 46 564 38 q 499 54 524 54 q 453 46 474 54 q 410 27 433 38 q 358 8 388 17 q 286 0 329 0 q 199 13 239 0 q 131 47 160 25 q 85 97 101 68 q 69 160 69 126 q 74 218 69 193 q 84 265 79 243 q 94 307 89 286 q 99 354 99 328 q 83 423 99 392 q 49 485 68 454 q 15 548 31 515 q 0 622 0 581 q 42 731 0 693 q 158 769 83 769 q 275 731 233 769 q 317 622 317 693 q 308 558 317 586 q 290 504 300 529 q 270 455 279 479 q 261 401 261 431 q 268 357 261 382 q 288 310 275 332 q 322 274 301 289 q 371 260 343 260 q 424 286 407 260 q 440 339 440 313 q 434 378 440 361 q 421 411 428 394 q 408 447 414 428 q 401 490 401 465 q 428 568 401 539 q 499 597 456 597 q 569 568 542 597 q 597 490 597 539 q 591 447 597 465 q 577 411 585 428 q 563 378 569 394 q 557 339 557 361 q 574 286 557 313 q 626 260 592 260 q 675 274 654 260 q 710 310 696 289 q 731 357 724 332 q 738 401 738 382 q 728 455 738 431 q 709 504 719 479 q 690 558 699 529 q 681 622 681 586 q 722 731 681 693 q 839 769 764 769 q 956 731 914 769 q 997 622 997 693 z "},"x":{"ha":719,"x_min":0,"x_max":692,"o":"m 494 383 q 525 349 494 369 q 593 301 556 329 q 661 233 631 272 q 692 144 692 194 q 648 39 692 78 q 540 0 604 0 q 474 10 503 0 q 425 39 444 21 q 396 79 406 57 q 386 126 386 101 q 392 165 386 149 q 405 194 397 181 q 418 219 413 207 q 424 246 424 231 q 419 264 424 253 q 404 285 414 275 q 380 301 394 294 q 346 308 365 308 q 311 301 326 308 q 286 285 296 294 q 272 264 276 275 q 267 246 267 253 q 273 219 267 231 q 286 194 279 207 q 299 165 293 181 q 306 126 306 149 q 296 79 306 101 q 267 39 286 57 q 218 10 247 21 q 151 0 189 0 q 44 39 88 0 q 0 144 0 78 q 31 238 0 196 q 98 309 61 279 q 165 358 135 339 q 196 383 196 376 q 165 410 196 392 q 98 460 135 429 q 31 532 61 490 q 0 625 0 574 q 41 731 0 692 q 146 769 82 769 q 214 759 186 769 q 260 731 242 749 q 286 690 278 713 q 294 643 294 668 q 290 597 294 614 q 278 567 285 579 q 267 544 272 554 q 263 518 263 533 q 272 489 263 501 q 295 469 282 476 q 323 458 308 461 q 346 454 338 454 q 368 457 354 454 q 396 467 382 460 q 419 488 410 475 q 429 518 429 500 q 424 544 429 533 q 413 567 419 554 q 401 597 407 579 q 396 643 396 614 q 404 690 396 668 q 431 731 413 713 q 478 759 450 749 q 546 769 507 769 q 650 731 608 769 q 692 625 692 692 q 661 535 692 575 q 593 466 631 496 q 525 415 556 436 q 494 383 494 394 z "},"y":{"ha":693,"x_min":0,"x_max":665,"o":"m 47 474 q 40 519 47 499 q 24 560 32 540 q 8 601 15 579 q 0 649 0 622 q 38 739 0 708 q 132 769 75 769 q 241 733 208 769 q 274 647 274 696 q 265 601 274 622 q 247 558 257 579 q 228 516 236 538 q 219 469 219 494 q 249 383 219 418 q 328 349 279 349 q 405 377 378 349 q 432 454 432 406 q 425 507 432 488 q 410 542 418 526 q 394 574 401 557 q 388 622 388 592 q 420 731 388 693 q 519 769 453 769 q 630 731 594 769 q 665 622 665 693 q 657 546 665 581 q 639 478 649 511 q 621 411 629 444 q 613 340 613 378 q 618 261 613 293 q 631 201 624 229 q 643 144 638 174 q 649 74 649 115 q 625 -21 649 19 q 559 -88 601 -61 q 457 -128 517 -115 q 326 -142 397 -142 q 181 -129 242 -142 q 79 -94 119 -117 q 19 -42 39 -72 q 0 24 0 -11 q 13 88 0 63 q 46 130 25 114 q 94 153 67 146 q 150 160 121 160 q 217 152 183 160 q 284 136 251 144 q 346 120 317 128 q 396 113 375 113 q 431 125 418 113 q 443 158 443 138 q 426 197 443 182 q 389 213 410 213 q 353 206 368 213 q 324 192 339 200 q 292 178 310 185 q 246 172 274 172 q 84 215 138 172 q 31 336 31 258 q 39 418 31 389 q 47 474 47 447 z "},"z":{"ha":628,"x_min":0,"x_max":599,"o":"m 499 246 q 579 213 560 246 q 599 126 599 181 q 570 57 599 82 q 497 19 542 32 q 395 3 451 7 q 282 0 339 0 q 69 40 139 0 q 0 176 0 79 q 17 228 0 200 q 60 284 33 256 q 119 341 86 313 q 183 394 151 369 q 243 438 215 418 q 288 467 271 457 q 317 497 314 482 q 300 511 319 511 q 269 510 289 511 q 226 506 250 508 q 175 503 201 504 q 124 501 149 501 q 27 538 54 501 q 0 631 0 575 q 28 702 0 675 q 102 744 57 729 q 204 765 147 760 q 318 769 261 769 q 442 765 389 769 q 529 743 494 761 q 581 690 564 725 q 599 593 599 656 q 569 519 599 557 q 498 445 540 481 q 408 379 456 410 q 326 328 361 349 q 280 292 289 307 q 276 267 271 276 q 297 254 282 258 q 322 250 311 250 q 410 248 363 250 q 499 246 457 246 z "},"&":{"ha":1107,"x_min":14,"x_max":1093,"o":"m 772 418 q 781 391 772 400 q 800 376 789 382 q 887 344 844 363 q 963 300 929 326 q 1016 236 996 274 q 1036 146 1036 199 q 1022 82 1036 111 q 985 32 1008 53 q 931 -1 961 11 q 867 -12 900 -12 q 803 -3 833 -12 q 749 26 772 7 q 713 73 726 44 q 699 140 699 101 q 689 173 699 156 q 658 190 679 190 q 633 176 642 190 q 613 141 624 163 q 588 95 603 119 q 543 49 572 71 q 468 14 514 28 q 350 0 422 0 q 191 17 256 0 q 87 67 126 33 q 31 155 47 101 q 14 282 14 208 q 43 383 14 344 q 107 444 72 421 q 171 482 142 468 q 200 513 200 496 q 172 538 200 525 q 109 574 143 550 q 47 638 75 597 q 18 749 18 679 q 38 836 18 794 q 100 910 58 878 q 207 960 142 942 q 363 979 272 979 q 622 918 540 979 q 703 757 703 857 q 681 668 703 700 q 631 615 658 636 q 581 578 604 594 q 558 535 558 561 q 570 502 558 515 q 608 489 582 489 q 650 513 635 489 q 678 573 665 538 q 706 651 692 608 q 747 728 721 693 q 812 788 772 764 q 914 813 851 813 q 1012 789 972 813 q 1072 730 1051 765 q 1092 653 1092 694 q 1074 576 1093 611 q 1015 517 1054 540 q 914 493 975 493 q 860 488 886 493 q 815 472 835 482 q 784 447 796 461 q 772 418 772 433 m 372 424 q 324 420 347 424 q 282 407 300 417 q 253 383 264 397 q 242 344 242 368 q 253 307 242 322 q 282 283 264 292 q 324 270 300 274 q 372 267 347 267 q 459 283 422 267 q 496 344 496 299 q 459 407 496 390 q 372 424 422 424 m 364 594 q 395 597 379 594 q 424 606 411 600 q 447 620 438 611 q 456 642 456 629 q 431 685 456 672 q 360 697 406 697 q 293 685 322 697 q 264 642 264 672 q 295 603 264 611 q 364 594 326 594 z "},"˘":{"ha":457,"x_min":14,"x_max":443,"o":"m 361 1078 q 424 1057 406 1078 q 443 1000 443 1036 q 426 934 443 958 q 378 898 408 910 q 310 883 349 886 q 228 879 271 879 q 147 883 186 879 q 78 898 108 886 q 31 934 49 910 q 14 1000 14 958 q 33 1057 14 1036 q 96 1078 51 1078 q 158 1057 140 1078 q 176 1000 176 1036 q 187 940 176 956 q 228 924 197 924 q 269 940 258 924 q 281 1000 281 956 q 299 1057 281 1036 q 361 1078 317 1078 z "},"˙":{"ha":247,"x_min":14,"x_max":233,"o":"m 124 1078 q 208 1050 183 1078 q 233 974 233 1022 q 208 898 233 925 q 124 871 183 871 q 39 898 64 871 q 14 974 14 925 q 39 1050 14 1022 q 124 1078 64 1078 z "},"˚":{"ha":256,"x_min":14,"x_max":240,"o":"m 240 964 q 208 883 240 917 q 128 850 175 850 q 47 883 81 850 q 14 964 14 917 q 47 1044 14 1011 q 128 1078 81 1078 q 208 1044 175 1078 q 240 964 240 1011 m 128 1017 q 90 1001 106 1017 q 75 964 75 986 q 90 926 75 942 q 128 911 106 911 q 164 926 149 911 q 179 964 179 942 q 164 1001 179 986 q 128 1017 149 1017 z "},"˝":{"ha":383,"x_min":13,"x_max":372,"o":"m 199 976 q 171 915 192 940 q 125 874 150 889 q 74 852 100 858 q 32 850 49 846 q 18 859 24 851 q 15 879 13 867 q 24 906 19 896 q 35 928 29 917 q 48 958 42 940 q 60 1004 54 975 q 89 1058 67 1039 q 144 1071 111 1078 q 192 1039 179 1064 q 199 976 206 1014 m 313 1071 q 256 1058 278 1078 q 226 1004 233 1039 q 215 958 221 975 q 203 928 208 940 q 192 906 197 917 q 183 879 186 896 q 185 859 181 867 q 199 850 190 851 q 241 852 215 846 q 292 874 267 858 q 338 915 317 889 q 365 976 358 940 q 359 1039 372 1014 q 313 1071 346 1064 z "},"˛":{"ha":263,"x_min":14,"x_max":247,"o":"m 174 82 q 206 69 194 82 q 218 41 217 57 q 210 13 219 25 q 181 0 201 0 q 154 -7 168 0 q 128 -24 140 -14 q 110 -48 117 -35 q 103 -75 103 -61 q 123 -103 103 -99 q 169 -108 143 -108 q 226 -126 206 -108 q 247 -174 247 -144 q 224 -233 247 -210 q 160 -256 200 -256 q 50 -217 86 -256 q 14 -110 14 -178 q 24 -44 14 -78 q 55 18 35 -10 q 105 64 75 46 q 174 82 135 82 z "},"ˇ":{"ha":435,"x_min":14,"x_max":419,"o":"m 86 904 q 33 945 53 921 q 14 1001 14 969 q 35 1056 14 1032 q 92 1079 56 1079 q 144 1058 121 1079 q 168 1001 168 1036 q 172 969 168 989 q 183 932 176 950 q 198 901 189 914 q 217 889 207 889 q 238 901 229 889 q 253 932 247 914 q 263 969 260 950 q 265 1001 265 989 q 289 1058 265 1036 q 342 1079 313 1079 q 399 1056 378 1079 q 419 1001 419 1032 q 400 945 419 969 q 347 904 381 921 q 313 881 329 894 q 283 854 297 867 q 252 833 268 842 q 217 824 236 824 q 185 833 200 824 q 154 854 169 842 q 122 881 139 867 q 86 904 106 894 z "},"`":{"ha":293,"x_min":6,"x_max":278,"o":"m 260 899 q 278 876 278 890 q 251 859 278 865 q 190 853 225 853 q 153 855 171 853 q 119 863 135 857 q 33 917 61 881 q 18 994 6 954 q 86 1050 33 1050 q 137 1032 119 1050 q 169 990 154 1014 q 203 940 183 965 q 260 899 222 914 z "},"ˆ":{"ha":435,"x_min":14,"x_max":419,"o":"m 347 999 q 400 958 381 982 q 419 901 419 933 q 399 848 419 872 q 342 824 378 824 q 289 845 313 824 q 265 901 265 867 q 261 933 265 914 q 251 971 257 953 q 235 1001 244 989 q 217 1014 226 1014 q 195 1001 204 1014 q 180 971 186 989 q 171 933 174 953 q 168 901 168 914 q 144 845 168 867 q 92 824 121 824 q 35 848 56 824 q 14 901 14 872 q 33 958 14 933 q 86 999 53 982 q 121 1022 106 1008 q 151 1049 136 1036 q 181 1070 165 1061 q 217 1079 197 1079 q 249 1070 233 1079 q 279 1049 264 1061 q 312 1022 294 1036 q 347 999 329 1008 z "},"¨":{"ha":518,"x_min":14,"x_max":504,"o":"m 124 1078 q 208 1050 183 1078 q 233 974 233 1022 q 208 898 233 925 q 124 871 183 871 q 39 898 64 871 q 14 974 14 925 q 39 1050 14 1022 q 124 1078 64 1078 m 394 1078 q 479 1050 454 1078 q 504 974 504 1022 q 479 898 504 925 q 394 871 454 871 q 310 898 335 871 q 285 974 285 925 q 310 1050 285 1022 q 394 1078 335 1078 z "},"´":{"ha":292,"x_min":14,"x_max":286,"o":"m 206 1050 q 274 994 258 1050 q 258 917 286 954 q 172 863 231 881 q 123 854 150 856 q 72 855 96 853 q 31 863 47 857 q 14 876 14 868 q 32 899 14 890 q 89 940 69 914 q 123 990 108 965 q 155 1032 138 1014 q 206 1050 172 1050 z "},"¸":{"ha":263,"x_min":15,"x_max":249,"o":"m 92 -21 q 249 -151 249 -21 q 210 -245 249 -210 q 115 -281 172 -281 q 43 -253 71 -281 q 15 -189 15 -225 q 26 -142 15 -158 q 54 -126 38 -126 q 79 -133 65 -126 q 108 -147 94 -142 q 133 -153 122 -153 q 160 -117 160 -153 q 146 -78 160 -94 q 103 -62 132 -62 q 49 -58 63 -62 q 36 -43 35 -54 q 48 -12 38 -32 q 65 36 58 7 q 76 58 68 47 q 108 68 83 68 q 135 60 124 68 q 146 33 146 53 q 134 15 146 25 q 110 -2 122 6 q 91 -15 99 -10 q 92 -21 83 -21 z "},"Ł":{"ha":789,"x_min":-4,"x_max":760,"o":"m 611 340 q 721 308 682 340 q 760 200 760 275 q 729 94 760 133 q 651 33 699 54 q 542 6 603 13 q 422 0 482 0 q 298 9 358 0 q 190 42 238 18 q 113 110 142 67 q 83 224 83 154 q 85 236 83 232 q 15 233 46 203 q 1 271 -4 253 q 29 313 6 289 l 181 469 q 183 493 183 483 q 166 562 183 532 q 128 624 149 592 q 91 697 108 656 q 74 797 74 738 q 127 929 74 881 q 269 978 181 978 q 336 963 307 978 q 386 922 365 947 q 417 865 407 897 q 428 797 428 832 q 424 751 428 772 q 415 711 421 731 l 435 731 q 476 759 458 754 q 514 744 494 764 q 529 706 533 725 q 501 664 525 688 l 335 494 l 335 493 q 335 450 335 476 q 347 399 336 424 q 384 358 358 375 q 460 340 410 340 l 611 340 z "},"Ø":{"ha":740,"x_min":0,"x_max":711,"o":"m 622 842 q 690 681 668 772 q 711 489 711 590 q 691 303 711 392 q 628 147 671 214 q 519 40 586 79 q 356 0 451 0 q 244 17 293 0 q 156 65 194 33 l 142 42 q 89 -26 111 -7 q 43 -29 67 -44 q 26 13 19 -15 q 61 90 32 42 l 89 138 q 22 297 43 206 q 0 489 0 388 q 20 675 0 586 q 83 831 40 764 q 192 938 125 899 q 356 978 260 978 q 467 961 418 978 q 556 913 517 944 l 571 938 q 623 1004 600 986 q 669 1008 646 1022 q 687 965 693 993 q 650 888 681 936 l 622 842 m 101 489 q 140 417 101 442 q 236 381 178 392 l 372 607 l 356 607 q 260 601 306 607 q 178 583 214 596 q 122 547 143 569 q 101 489 101 524 m 356 371 q 451 376 406 371 q 533 396 497 382 q 589 432 568 410 q 610 489 610 454 q 572 562 610 536 q 476 599 535 588 l 339 371 l 356 371 z "},"Æ":{"ha":1239,"x_min":0,"x_max":1210,"o":"m 1056 306 q 1169 263 1129 306 q 1210 122 1210 221 q 1183 53 1210 78 q 1093 17 1156 29 q 930 3 1031 6 q 681 0 829 0 l 658 0 q 522 51 569 0 q 475 181 475 101 q 481 234 475 210 q 497 282 488 258 l 497 282 q 511 333 508 307 q 506 378 514 358 q 476 412 497 399 q 422 425 456 425 q 368 412 389 425 q 339 378 347 399 q 333 333 331 358 q 347 282 335 307 l 347 282 q 363 234 357 258 q 368 181 368 210 q 322 51 368 101 q 186 0 275 0 q 49 51 97 0 q 0 181 0 101 q 12 274 0 233 q 38 349 24 314 q 65 418 53 385 q 76 489 76 451 q 67 553 76 526 q 44 606 57 579 q 22 667 32 633 q 13 753 13 701 q 54 866 13 822 q 157 935 96 910 q 288 969 218 960 q 411 978 357 978 q 472 976 439 978 q 540 968 506 974 q 610 953 575 963 q 675 931 644 944 q 761 968 711 958 q 869 978 811 978 q 1021 972 957 978 q 1126 944 1085 965 q 1189 885 1168 924 q 1210 779 1210 846 q 1198 719 1210 743 q 1165 683 1186 696 q 1117 664 1144 669 q 1061 658 1090 658 q 967 668 1013 658 q 882 678 921 678 q 818 651 842 678 q 794 593 794 625 q 813 551 794 565 q 863 536 831 536 q 905 544 883 536 q 949 562 926 553 q 994 579 971 571 q 1040 588 1017 588 q 1113 556 1086 588 q 1140 485 1140 525 q 1114 415 1140 444 q 1040 385 1088 385 q 992 390 1017 385 q 944 402 967 396 q 900 414 921 408 q 863 419 879 419 q 819 406 836 419 q 803 368 803 392 q 825 313 803 339 q 882 288 847 288 q 964 297 921 288 q 1056 306 1007 306 m 413 529 q 477 533 446 529 q 533 545 508 536 q 571 569 557 554 q 585 607 585 585 q 571 644 585 629 q 533 669 557 660 q 477 681 508 678 q 413 685 446 685 q 348 681 379 685 q 292 669 317 678 q 254 644 268 660 q 240 607 240 629 q 254 569 240 585 q 292 545 268 554 q 348 533 317 536 q 413 529 379 529 z "},"Œ":{"ha":1161,"x_min":0,"x_max":1132,"o":"m 978 306 q 1092 271 1051 306 q 1132 158 1132 236 q 1030 34 1132 68 q 733 0 928 0 q 697 3 718 0 q 650 13 675 6 q 600 33 625 21 q 551 63 575 44 q 465 6 513 32 q 356 -21 417 -21 q 192 22 260 -21 q 83 137 125 65 q 20 300 40 208 q 0 489 0 392 q 20 677 0 586 q 83 838 40 768 q 192 951 125 908 q 356 993 260 993 q 476 965 422 993 q 569 901 529 938 q 663 963 606 947 q 792 978 721 978 q 943 972 879 978 q 1049 944 1007 965 q 1111 885 1090 924 q 1132 779 1132 846 q 1120 719 1132 743 q 1088 683 1108 696 q 1040 664 1067 669 q 983 658 1013 658 q 889 668 935 658 q 804 678 843 678 q 740 651 764 678 q 717 593 717 625 q 735 551 717 565 q 785 536 753 536 q 827 544 806 536 q 871 562 849 553 q 916 579 893 571 q 963 588 939 588 q 1035 556 1008 588 q 1063 485 1063 525 q 1036 415 1063 444 q 963 385 1010 385 q 914 390 939 385 q 866 402 889 396 q 822 414 843 408 q 785 419 801 419 q 742 406 758 419 q 725 368 725 392 q 747 313 725 339 q 804 288 769 288 q 886 297 843 288 q 978 306 929 306 m 101 489 q 122 432 101 454 q 178 396 143 410 q 260 376 214 382 q 356 371 306 371 q 513 396 456 371 q 571 489 571 421 q 556 547 571 524 q 513 583 542 569 q 445 601 485 596 q 356 607 406 607 q 260 601 306 607 q 178 583 214 596 q 122 547 143 569 q 101 489 101 524 z "},"æ":{"ha":1046,"x_min":0,"x_max":1017,"o":"m 904 296 q 984 266 951 296 q 1017 188 1017 236 q 998 117 1017 150 q 940 57 979 83 q 842 15 901 31 q 703 0 783 0 q 637 6 665 0 q 583 19 608 13 q 531 33 557 26 q 474 39 506 39 q 426 30 450 39 q 374 9 401 21 q 313 -12 346 -3 q 238 -21 279 -21 q 158 -8 200 -21 q 81 31 117 4 q 23 100 46 57 q 0 203 0 143 q 26 315 0 272 q 92 387 53 358 q 178 433 132 415 q 265 472 225 451 q 331 519 304 492 q 357 590 357 546 q 347 616 357 606 q 322 626 336 626 q 278 612 299 626 q 257 561 257 597 q 222 490 257 522 q 125 457 188 457 q 42 488 78 457 q 7 565 7 519 q 30 647 7 610 q 92 712 53 685 q 185 754 132 739 q 299 769 239 769 q 460 754 399 769 q 557 713 522 739 q 590 740 574 726 q 626 765 606 754 q 670 783 646 776 q 725 790 694 790 q 840 769 792 790 q 922 715 889 749 q 970 638 954 681 q 986 549 986 594 q 972 460 986 500 q 924 390 957 419 q 840 344 892 361 q 713 328 788 328 q 678 317 689 328 q 669 295 668 307 q 683 273 671 283 q 713 263 694 263 q 765 268 744 263 q 806 280 786 274 q 849 291 826 286 q 904 296 871 296 m 349 179 q 397 219 389 179 q 404 326 404 258 q 393 381 404 360 q 361 403 382 403 q 299 369 325 403 q 272 283 272 336 q 279 242 272 261 q 298 208 286 222 q 323 187 310 194 q 349 179 336 179 m 619 500 q 628 472 619 482 q 652 456 638 461 q 685 451 667 451 q 721 450 703 450 q 817 472 778 451 q 856 519 857 492 q 842 542 856 533 q 809 556 829 551 q 765 561 789 560 q 717 563 740 563 q 683 559 700 563 q 651 548 665 556 q 628 528 638 540 q 619 500 619 517 z "},"ł":{"ha":558,"x_min":-4,"x_max":533,"o":"m 339 593 q 337 572 338 582 q 336 553 336 563 q 350 462 336 514 q 380 353 364 410 q 410 243 396 297 q 424 147 424 189 q 382 38 424 76 q 265 0 340 0 q 149 38 190 0 q 107 147 107 76 q 113 207 107 175 q 128 274 119 239 q 148 346 138 310 q 168 417 158 382 l 96 342 q 53 313 72 318 q 15 328 35 308 q 1 366 -4 347 q 29 408 6 385 l 192 576 q 174 660 188 614 q 145 753 160 706 q 119 847 131 801 q 107 931 107 893 q 149 1040 107 1001 q 265 1079 190 1079 q 382 1040 340 1079 q 424 931 424 1001 q 415 861 424 899 q 394 783 406 824 l 435 826 q 476 854 458 850 q 514 839 494 858 q 529 801 533 819 q 501 760 525 783 l 339 593 z "},"ø":{"ha":589,"x_min":0,"x_max":561,"o":"m 496 654 q 545 531 529 601 q 561 385 561 461 q 545 235 561 308 q 496 106 529 163 q 409 14 463 49 q 281 -21 356 -21 q 190 -2 228 -21 q 131 44 151 17 l 122 28 q 79 -23 99 -10 q 36 -22 60 -36 q 15 16 13 -7 q 42 78 18 39 l 65 115 q 15 238 31 168 q 0 385 0 308 q 16 534 0 461 q 65 664 32 607 q 152 756 99 721 q 281 790 206 790 q 365 771 325 790 q 429 725 406 751 l 439 742 q 482 792 463 779 q 525 792 501 806 q 545 753 549 776 q 518 692 542 731 l 496 654 m 142 385 q 155 349 142 363 q 192 328 168 335 l 267 453 q 179 437 217 451 q 142 385 142 422 m 294 317 q 382 333 344 318 q 419 385 419 347 q 406 421 419 407 q 369 442 392 435 l 294 317 z "},"œ":{"ha":981,"x_min":0,"x_max":953,"o":"m 839 296 q 920 266 888 296 q 953 188 953 236 q 894 36 953 93 q 722 -21 836 -21 q 583 14 643 -21 q 479 93 524 49 q 397 14 446 49 q 281 -21 347 -21 q 152 14 206 -21 q 65 106 99 49 q 16 235 32 163 q 0 385 0 308 q 16 534 0 461 q 65 664 32 607 q 152 756 99 721 q 281 790 206 790 q 389 759 343 790 q 468 690 435 728 q 551 759 504 728 q 660 790 597 790 q 776 769 726 790 q 858 715 825 749 q 906 638 890 681 q 922 549 922 594 q 908 460 922 500 q 860 390 893 419 q 776 344 828 361 q 649 328 724 328 q 615 317 625 328 q 606 295 604 307 q 618 273 607 283 q 649 263 629 263 q 701 268 681 263 q 742 280 722 274 q 783 291 761 286 q 839 296 806 296 m 281 317 q 333 320 308 317 q 377 331 358 324 q 408 352 396 339 q 419 385 419 365 q 408 417 419 404 q 377 438 396 431 q 333 449 358 446 q 281 453 308 453 q 228 449 253 453 q 183 438 203 446 q 153 417 164 431 q 142 385 142 404 q 183 331 142 346 q 281 317 225 317 m 556 500 q 565 472 556 482 q 588 456 574 461 q 621 451 603 451 q 657 450 639 450 q 742 467 714 451 q 769 521 769 482 q 735 552 769 540 q 653 563 700 564 q 619 559 636 563 q 588 548 601 556 q 565 528 574 540 q 556 500 556 517 z "},"À":{"ha":896,"x_min":0,"x_max":867,"o":"m 768 500 q 783 422 768 458 q 817 351 799 386 q 851 276 836 315 q 867 186 867 236 q 819 51 867 103 q 682 0 771 0 q 546 51 593 0 q 499 181 499 101 q 504 233 499 210 q 518 276 510 257 q 532 331 531 304 q 523 378 533 357 q 490 412 513 399 q 432 425 467 425 q 373 410 394 425 q 343 373 351 396 q 338 323 335 350 q 350 274 340 296 q 363 233 357 257 q 368 181 368 210 q 322 51 368 101 q 186 0 275 0 q 49 51 97 0 q 0 186 0 103 q 16 276 0 236 q 51 351 32 315 q 85 422 69 386 q 100 500 100 458 q 90 558 100 533 q 68 605 81 582 q 46 655 56 628 q 36 722 36 682 q 78 854 36 804 q 181 931 119 904 q 310 968 242 958 q 433 978 379 978 q 557 968 488 978 q 688 931 626 958 q 790 854 749 904 q 832 722 832 804 q 822 655 832 682 q 800 605 813 628 q 778 558 788 582 q 768 500 768 533 m 435 529 q 500 533 468 529 q 556 545 532 536 q 594 569 579 554 q 608 607 608 585 q 594 644 608 629 q 556 669 579 660 q 500 681 532 678 q 435 685 468 685 q 370 681 401 685 q 315 669 339 678 q 276 644 290 660 q 263 607 263 629 q 276 569 263 585 q 315 545 290 554 q 370 533 339 536 q 435 529 401 529 m 561 1103 q 579 1081 579 1094 q 553 1063 579 1069 q 492 1057 526 1057 q 454 1059 472 1057 q 421 1067 436 1061 q 335 1122 363 1085 q 319 1199 307 1158 q 388 1254 335 1254 q 438 1236 421 1254 q 470 1194 456 1218 q 504 1144 485 1169 q 561 1103 524 1118 z "},"Á":{"ha":896,"x_min":0,"x_max":867,"o":"m 478 1257 q 546 1201 531 1257 q 531 1124 558 1161 q 444 1069 503 1088 q 411 1062 429 1064 q 374 1060 393 1060 q 313 1066 339 1060 q 286 1083 286 1072 q 304 1106 286 1097 q 361 1147 342 1121 q 395 1197 381 1172 q 427 1239 410 1221 q 478 1257 444 1257 m 768 500 q 783 422 768 458 q 817 351 799 386 q 851 276 836 315 q 867 186 867 236 q 819 51 867 103 q 682 0 771 0 q 546 51 593 0 q 499 181 499 101 q 504 233 499 210 q 518 276 510 257 q 532 331 531 304 q 523 378 533 357 q 490 412 513 399 q 432 425 467 425 q 373 410 394 425 q 343 373 351 396 q 338 323 335 350 q 350 274 340 296 q 363 233 357 257 q 368 181 368 210 q 322 51 368 101 q 186 0 275 0 q 49 51 97 0 q 0 186 0 103 q 16 276 0 236 q 51 351 32 315 q 85 422 69 386 q 100 500 100 458 q 90 558 100 533 q 68 605 81 582 q 46 655 56 628 q 36 722 36 682 q 78 854 36 804 q 181 931 119 904 q 310 968 242 958 q 433 978 379 978 q 557 968 488 978 q 688 931 626 958 q 790 854 749 904 q 832 722 832 804 q 822 655 832 682 q 800 605 813 628 q 778 558 788 582 q 768 500 768 533 m 435 529 q 500 533 468 529 q 556 545 532 536 q 594 569 579 554 q 608 607 608 585 q 594 644 608 629 q 556 669 579 660 q 500 681 532 678 q 435 685 468 685 q 370 681 401 685 q 315 669 339 678 q 276 644 290 660 q 263 607 263 629 q 276 569 263 585 q 315 545 290 554 q 370 533 339 536 q 435 529 401 529 z "},"Â":{"ha":896,"x_min":0,"x_max":867,"o":"m 768 500 q 783 422 768 458 q 817 351 799 386 q 851 276 836 315 q 867 186 867 236 q 819 51 867 103 q 682 0 771 0 q 546 51 593 0 q 499 181 499 101 q 504 233 499 210 q 518 276 510 257 q 532 331 531 304 q 523 378 533 357 q 490 412 513 399 q 432 425 467 425 q 373 410 394 425 q 343 373 351 396 q 338 323 335 350 q 350 274 340 296 q 363 233 357 257 q 368 181 368 210 q 322 51 368 101 q 186 0 275 0 q 49 51 97 0 q 0 186 0 103 q 16 276 0 236 q 51 351 32 315 q 85 422 69 386 q 100 500 100 458 q 90 558 100 533 q 68 605 81 582 q 46 655 56 628 q 36 722 36 682 q 78 854 36 804 q 181 931 119 904 q 310 968 242 958 q 433 978 379 978 q 557 968 488 978 q 688 931 626 958 q 790 854 749 904 q 832 722 832 804 q 822 655 832 682 q 800 605 813 628 q 778 558 788 582 q 768 500 768 533 m 435 529 q 500 533 468 529 q 556 545 532 536 q 594 569 579 554 q 608 607 608 585 q 594 644 608 629 q 556 669 579 660 q 500 681 532 678 q 435 685 468 685 q 370 681 401 685 q 315 669 339 678 q 276 644 290 660 q 263 607 263 629 q 276 569 263 585 q 315 545 290 554 q 370 533 339 536 q 435 529 401 529 m 564 1233 q 617 1192 597 1217 q 636 1136 636 1168 q 615 1083 636 1107 q 558 1058 594 1058 q 506 1080 529 1058 q 482 1136 482 1101 q 478 1168 482 1149 q 467 1206 474 1188 q 452 1236 461 1224 q 433 1249 443 1249 q 412 1236 421 1249 q 397 1206 403 1224 q 388 1168 390 1188 q 385 1136 385 1149 q 361 1080 385 1101 q 308 1058 338 1058 q 251 1083 272 1058 q 231 1136 231 1107 q 250 1192 231 1168 q 303 1233 269 1217 q 338 1257 322 1243 q 367 1283 353 1271 q 398 1305 382 1296 q 433 1314 414 1314 q 465 1305 450 1314 q 496 1283 481 1296 q 528 1257 511 1271 q 564 1233 546 1243 z "},"Ã":{"ha":896,"x_min":0,"x_max":867,"o":"m 636 1144 q 640 1110 649 1126 q 618 1093 632 1093 q 600 1099 608 1093 q 582 1110 592 1104 q 560 1122 572 1117 q 531 1126 547 1126 q 489 1113 504 1126 q 460 1084 474 1100 q 427 1055 446 1068 q 374 1042 408 1042 q 290 1066 329 1042 q 231 1118 251 1090 q 225 1153 218 1136 q 249 1169 232 1169 q 267 1165 258 1169 q 285 1153 275 1160 q 306 1142 294 1147 q 336 1136 318 1136 q 375 1149 360 1136 q 407 1178 390 1163 q 445 1208 424 1194 q 503 1221 467 1221 q 581 1197 547 1221 q 636 1144 614 1172 m 768 500 q 783 422 768 458 q 817 351 799 386 q 851 276 836 315 q 867 186 867 236 q 819 51 867 103 q 682 0 771 0 q 546 51 593 0 q 499 181 499 101 q 504 233 499 210 q 518 276 510 257 q 532 331 531 304 q 523 378 533 357 q 490 412 513 399 q 432 425 467 425 q 373 410 394 425 q 343 373 351 396 q 338 323 335 350 q 350 274 340 296 q 363 233 357 257 q 368 181 368 210 q 322 51 368 101 q 186 0 275 0 q 49 51 97 0 q 0 186 0 103 q 16 276 0 236 q 51 351 32 315 q 85 422 69 386 q 100 500 100 458 q 90 558 100 533 q 68 605 81 582 q 46 655 56 628 q 36 722 36 682 q 78 854 36 804 q 181 931 119 904 q 310 968 242 958 q 433 978 379 978 q 557 968 488 978 q 688 931 626 958 q 790 854 749 904 q 832 722 832 804 q 822 655 832 682 q 800 605 813 628 q 778 558 788 582 q 768 500 768 533 m 435 529 q 500 533 468 529 q 556 545 532 536 q 594 569 579 554 q 608 607 608 585 q 594 644 608 629 q 556 669 579 660 q 500 681 532 678 q 435 685 468 685 q 370 681 401 685 q 315 669 339 678 q 276 644 290 660 q 263 607 263 629 q 276 569 263 585 q 315 545 290 554 q 370 533 339 536 q 435 529 401 529 z "},"Ä":{"ha":896,"x_min":0,"x_max":867,"o":"m 299 1265 q 383 1238 358 1265 q 408 1161 408 1210 q 383 1085 408 1113 q 299 1058 358 1058 q 214 1085 239 1058 q 189 1161 189 1113 q 214 1238 189 1210 q 299 1265 239 1265 m 569 1265 q 654 1238 629 1265 q 679 1161 679 1210 q 654 1085 679 1113 q 569 1058 629 1058 q 485 1085 510 1058 q 460 1161 460 1113 q 485 1238 460 1210 q 569 1265 510 1265 m 768 500 q 783 422 768 458 q 817 351 799 386 q 851 276 836 315 q 867 186 867 236 q 819 51 867 103 q 682 0 771 0 q 546 51 593 0 q 499 181 499 101 q 504 233 499 210 q 518 276 510 257 q 532 331 531 304 q 523 378 533 357 q 490 412 513 399 q 432 425 467 425 q 373 410 394 425 q 343 373 351 396 q 338 323 335 350 q 350 274 340 296 q 363 233 357 257 q 368 181 368 210 q 322 51 368 101 q 186 0 275 0 q 49 51 97 0 q 0 186 0 103 q 16 276 0 236 q 51 351 32 315 q 85 422 69 386 q 100 500 100 458 q 90 558 100 533 q 68 605 81 582 q 46 655 56 628 q 36 722 36 682 q 78 854 36 804 q 181 931 119 904 q 310 968 242 958 q 433 978 379 978 q 557 968 488 978 q 688 931 626 958 q 790 854 749 904 q 832 722 832 804 q 822 655 832 682 q 800 605 813 628 q 778 558 788 582 q 768 500 768 533 m 435 529 q 500 533 468 529 q 556 545 532 536 q 594 569 579 554 q 608 607 608 585 q 594 644 608 629 q 556 669 579 660 q 500 681 532 678 q 435 685 468 685 q 370 681 401 685 q 315 669 339 678 q 276 644 290 660 q 263 607 263 629 q 276 569 263 585 q 315 545 290 554 q 370 533 339 536 q 435 529 401 529 z "},"Å":{"ha":896,"x_min":0,"x_max":867,"o":"m 546 1172 q 513 1092 546 1125 q 433 1058 481 1058 q 353 1092 386 1058 q 319 1172 319 1125 q 353 1253 319 1219 q 433 1286 386 1286 q 513 1253 481 1286 q 546 1172 546 1219 m 433 1225 q 396 1210 411 1225 q 381 1172 381 1194 q 396 1135 381 1150 q 433 1119 411 1119 q 469 1135 454 1119 q 485 1172 485 1150 q 469 1210 485 1194 q 433 1225 454 1225 m 768 500 q 783 422 768 458 q 817 351 799 386 q 851 276 836 315 q 867 186 867 236 q 819 51 867 103 q 682 0 771 0 q 546 51 593 0 q 499 181 499 101 q 504 233 499 210 q 518 276 510 257 q 532 331 531 304 q 523 378 533 357 q 490 412 513 399 q 432 425 467 425 q 373 410 394 425 q 343 373 351 396 q 338 323 335 350 q 350 274 340 296 q 363 233 357 257 q 368 181 368 210 q 322 51 368 101 q 186 0 275 0 q 49 51 97 0 q 0 186 0 103 q 16 276 0 236 q 51 351 32 315 q 85 422 69 386 q 100 500 100 458 q 90 558 100 533 q 68 605 81 582 q 46 655 56 628 q 36 722 36 682 q 78 854 36 804 q 181 931 119 904 q 310 968 242 958 q 433 978 379 978 q 557 968 488 978 q 688 931 626 958 q 790 854 749 904 q 832 722 832 804 q 822 655 832 682 q 800 605 813 628 q 778 558 788 582 q 768 500 768 533 m 435 529 q 500 533 468 529 q 556 545 532 536 q 594 569 579 554 q 608 607 608 585 q 594 644 608 629 q 556 669 579 660 q 500 681 532 678 q 435 685 468 685 q 370 681 401 685 q 315 669 339 678 q 276 644 290 660 q 263 607 263 629 q 276 569 263 585 q 315 545 290 554 q 370 533 339 536 q 435 529 401 529 z "},"È":{"ha":674,"x_min":0,"x_max":646,"o":"m 510 319 q 615 278 585 319 q 646 160 646 238 q 631 85 646 115 q 574 35 615 54 q 460 8 532 17 q 274 0 388 0 q 170 9 219 0 q 83 42 121 18 q 22 110 44 67 q 0 224 0 154 q 8 310 0 276 q 24 372 15 344 q 41 425 33 399 q 49 489 49 451 q 41 553 49 526 q 24 606 33 579 q 8 667 15 633 q 0 753 0 701 q 27 866 0 822 q 97 935 54 910 q 194 969 140 960 q 303 978 249 978 q 453 972 389 978 q 561 944 518 965 q 625 884 604 924 q 646 778 646 844 q 633 719 646 742 q 600 682 621 696 q 552 663 579 668 q 496 658 525 658 q 410 668 447 658 q 335 678 374 678 q 296 672 315 678 q 262 656 276 665 q 238 633 247 646 q 229 606 229 619 q 247 555 229 575 q 297 535 265 535 q 340 543 318 535 q 383 560 361 551 q 428 578 406 569 q 475 586 451 586 q 548 555 521 586 q 575 483 575 524 q 549 414 575 443 q 475 385 522 385 q 427 390 451 385 q 380 402 403 396 q 335 413 357 408 q 297 418 314 418 q 255 404 272 418 q 238 363 238 390 q 269 311 238 332 q 335 290 300 290 q 417 305 374 290 q 510 319 461 319 m 463 1103 q 481 1081 481 1094 q 454 1063 481 1069 q 393 1057 428 1057 q 356 1059 374 1057 q 322 1067 338 1061 q 236 1122 264 1085 q 221 1199 208 1158 q 289 1254 236 1254 q 340 1236 322 1254 q 372 1194 357 1218 q 406 1144 386 1169 q 463 1103 425 1118 z "},"É":{"ha":674,"x_min":0,"x_max":646,"o":"m 379 1257 q 447 1201 432 1257 q 432 1124 460 1161 q 346 1069 404 1088 q 313 1062 331 1064 q 275 1060 294 1060 q 214 1066 240 1060 q 188 1083 188 1072 q 206 1106 188 1097 q 263 1147 243 1121 q 297 1197 282 1172 q 328 1239 311 1221 q 379 1257 346 1257 m 510 319 q 615 278 585 319 q 646 160 646 238 q 631 85 646 115 q 574 35 615 54 q 460 8 532 17 q 274 0 388 0 q 170 9 219 0 q 83 42 121 18 q 22 110 44 67 q 0 224 0 154 q 8 310 0 276 q 24 372 15 344 q 41 425 33 399 q 49 489 49 451 q 41 553 49 526 q 24 606 33 579 q 8 667 15 633 q 0 753 0 701 q 27 866 0 822 q 97 935 54 910 q 194 969 140 960 q 303 978 249 978 q 453 972 389 978 q 561 944 518 965 q 625 884 604 924 q 646 778 646 844 q 633 719 646 742 q 600 682 621 696 q 552 663 579 668 q 496 658 525 658 q 410 668 447 658 q 335 678 374 678 q 296 672 315 678 q 262 656 276 665 q 238 633 247 646 q 229 606 229 619 q 247 555 229 575 q 297 535 265 535 q 340 543 318 535 q 383 560 361 551 q 428 578 406 569 q 475 586 451 586 q 548 555 521 586 q 575 483 575 524 q 549 414 575 443 q 475 385 522 385 q 427 390 451 385 q 380 402 403 396 q 335 413 357 408 q 297 418 314 418 q 255 404 272 418 q 238 363 238 390 q 269 311 238 332 q 335 290 300 290 q 417 305 374 290 q 510 319 461 319 z "},"Ê":{"ha":674,"x_min":0,"x_max":646,"o":"m 510 319 q 615 278 585 319 q 646 160 646 238 q 631 85 646 115 q 574 35 615 54 q 460 8 532 17 q 274 0 388 0 q 170 9 219 0 q 83 42 121 18 q 22 110 44 67 q 0 224 0 154 q 8 310 0 276 q 24 372 15 344 q 41 425 33 399 q 49 489 49 451 q 41 553 49 526 q 24 606 33 579 q 8 667 15 633 q 0 753 0 701 q 27 866 0 822 q 97 935 54 910 q 194 969 140 960 q 303 978 249 978 q 453 972 389 978 q 561 944 518 965 q 625 884 604 924 q 646 778 646 844 q 633 719 646 742 q 600 682 621 696 q 552 663 579 668 q 496 658 525 658 q 410 668 447 658 q 335 678 374 678 q 296 672 315 678 q 262 656 276 665 q 238 633 247 646 q 229 606 229 619 q 247 555 229 575 q 297 535 265 535 q 340 543 318 535 q 383 560 361 551 q 428 578 406 569 q 475 586 451 586 q 548 555 521 586 q 575 483 575 524 q 549 414 575 443 q 475 385 522 385 q 427 390 451 385 q 380 402 403 396 q 335 413 357 408 q 297 418 314 418 q 255 404 272 418 q 238 363 238 390 q 269 311 238 332 q 335 290 300 290 q 417 305 374 290 q 510 319 461 319 m 465 1233 q 518 1192 499 1217 q 538 1136 538 1168 q 517 1083 538 1107 q 460 1058 496 1058 q 407 1080 431 1058 q 383 1136 383 1101 q 379 1168 383 1149 q 369 1206 375 1188 q 353 1236 363 1224 q 335 1249 344 1249 q 313 1236 322 1249 q 298 1206 304 1224 q 289 1168 292 1188 q 286 1136 286 1149 q 263 1080 286 1101 q 210 1058 239 1058 q 153 1083 174 1058 q 132 1136 132 1107 q 151 1192 132 1168 q 204 1233 171 1217 q 239 1257 224 1243 q 269 1283 254 1271 q 299 1305 283 1296 q 335 1314 315 1314 q 367 1305 351 1314 q 397 1283 382 1296 q 430 1257 413 1271 q 465 1233 447 1243 z "},"Ë":{"ha":674,"x_min":0,"x_max":646,"o":"m 200 1265 q 285 1238 260 1265 q 310 1161 310 1210 q 285 1085 310 1113 q 200 1058 260 1058 q 115 1085 140 1058 q 90 1161 90 1113 q 115 1238 90 1210 q 200 1265 140 1265 m 471 1265 q 556 1238 531 1265 q 581 1161 581 1210 q 556 1085 581 1113 q 471 1058 531 1058 q 386 1085 411 1058 q 361 1161 361 1113 q 386 1238 361 1210 q 471 1265 411 1265 m 510 319 q 615 278 585 319 q 646 160 646 238 q 631 85 646 115 q 574 35 615 54 q 460 8 532 17 q 274 0 388 0 q 170 9 219 0 q 83 42 121 18 q 22 110 44 67 q 0 224 0 154 q 8 310 0 276 q 24 372 15 344 q 41 425 33 399 q 49 489 49 451 q 41 553 49 526 q 24 606 33 579 q 8 667 15 633 q 0 753 0 701 q 27 866 0 822 q 97 935 54 910 q 194 969 140 960 q 303 978 249 978 q 453 972 389 978 q 561 944 518 965 q 625 884 604 924 q 646 778 646 844 q 633 719 646 742 q 600 682 621 696 q 552 663 579 668 q 496 658 525 658 q 410 668 447 658 q 335 678 374 678 q 296 672 315 678 q 262 656 276 665 q 238 633 247 646 q 229 606 229 619 q 247 555 229 575 q 297 535 265 535 q 340 543 318 535 q 383 560 361 551 q 428 578 406 569 q 475 586 451 586 q 548 555 521 586 q 575 483 575 524 q 549 414 575 443 q 475 385 522 385 q 427 390 451 385 q 380 402 403 396 q 335 413 357 408 q 297 418 314 418 q 255 404 272 418 q 238 363 238 390 q 269 311 238 332 q 335 290 300 290 q 417 305 374 290 q 510 319 461 319 z "},"Ì":{"ha":400,"x_min":0,"x_max":371,"o":"m 186 0 q 49 40 97 0 q 0 160 0 81 q 16 256 0 213 q 52 339 32 300 q 88 415 72 378 q 104 489 104 451 q 88 563 104 526 q 52 639 72 600 q 16 722 32 678 q 0 817 0 765 q 49 937 0 896 q 186 978 97 978 q 323 937 275 978 q 371 817 371 896 q 355 722 371 765 q 319 639 339 678 q 283 563 299 600 q 267 489 267 526 q 283 415 267 451 q 319 339 299 378 q 355 256 339 300 q 371 160 371 213 q 323 40 371 81 q 186 0 275 0 m 314 1103 q 332 1081 332 1094 q 306 1063 332 1069 q 244 1057 279 1057 q 207 1059 225 1057 q 174 1067 189 1061 q 88 1122 115 1085 q 72 1199 60 1158 q 140 1254 88 1254 q 191 1236 174 1254 q 223 1194 208 1218 q 257 1144 238 1169 q 314 1103 276 1118 z "},"Í":{"ha":400,"x_min":0,"x_max":371,"o":"m 231 1257 q 299 1201 283 1257 q 283 1124 311 1161 q 197 1069 256 1088 q 164 1062 182 1064 q 126 1060 146 1060 q 65 1066 92 1060 q 39 1083 39 1072 q 57 1106 39 1097 q 114 1147 94 1121 q 148 1197 133 1172 q 180 1239 163 1221 q 231 1257 197 1257 m 186 0 q 49 40 97 0 q 0 160 0 81 q 16 256 0 213 q 52 339 32 300 q 88 415 72 378 q 104 489 104 451 q 88 563 104 526 q 52 639 72 600 q 16 722 32 678 q 0 817 0 765 q 49 937 0 896 q 186 978 97 978 q 323 937 275 978 q 371 817 371 896 q 355 722 371 765 q 319 639 339 678 q 283 563 299 600 q 267 489 267 526 q 283 415 267 451 q 319 339 299 378 q 355 256 339 300 q 371 160 371 213 q 323 40 371 81 q 186 0 275 0 z "},"Î":{"ha":400,"x_min":-17,"x_max":389,"o":"m 186 0 q 49 40 97 0 q 0 160 0 81 q 16 256 0 213 q 52 339 32 300 q 88 415 72 378 q 104 489 104 451 q 88 563 104 526 q 52 639 72 600 q 16 722 32 678 q 0 817 0 765 q 49 937 0 896 q 186 978 97 978 q 323 937 275 978 q 371 817 371 896 q 355 722 371 765 q 319 639 339 678 q 283 563 299 600 q 267 489 267 526 q 283 415 267 451 q 319 339 299 378 q 355 256 339 300 q 371 160 371 213 q 323 40 371 81 q 186 0 275 0 m 317 1233 q 369 1192 350 1217 q 389 1136 389 1168 q 368 1083 389 1107 q 311 1058 347 1058 q 258 1080 282 1058 q 235 1136 235 1101 q 231 1168 235 1149 q 220 1206 226 1188 q 205 1236 214 1224 q 186 1249 196 1249 q 165 1236 174 1249 q 149 1206 156 1224 q 140 1168 143 1188 q 138 1136 138 1149 q 114 1080 138 1101 q 61 1058 90 1058 q 4 1083 25 1058 q -17 1136 -17 1107 q 3 1192 -17 1168 q 56 1233 22 1217 q 90 1257 75 1243 q 120 1283 106 1271 q 151 1305 135 1296 q 186 1314 167 1314 q 218 1305 203 1314 q 249 1283 233 1296 q 281 1257 264 1271 q 317 1233 299 1243 z "},"Ï":{"ha":400,"x_min":-58,"x_max":432,"o":"m 51 1265 q 136 1238 111 1265 q 161 1161 161 1210 q 136 1085 161 1113 q 51 1058 111 1058 q -33 1085 -8 1058 q -58 1161 -58 1113 q -33 1238 -58 1210 q 51 1265 -8 1265 m 322 1265 q 407 1238 382 1265 q 432 1161 432 1210 q 407 1085 432 1113 q 322 1058 382 1058 q 238 1085 263 1058 q 213 1161 213 1113 q 238 1238 213 1210 q 322 1265 263 1265 m 186 0 q 49 40 97 0 q 0 160 0 81 q 16 256 0 213 q 52 339 32 300 q 88 415 72 378 q 104 489 104 451 q 88 563 104 526 q 52 639 72 600 q 16 722 32 678 q 0 817 0 765 q 49 937 0 896 q 186 978 97 978 q 323 937 275 978 q 371 817 371 896 q 355 722 371 765 q 319 639 339 678 q 283 563 299 600 q 267 489 267 526 q 283 415 267 451 q 319 339 299 378 q 355 256 339 300 q 371 160 371 213 q 323 40 371 81 q 186 0 275 0 z "},"Ñ":{"ha":897,"x_min":0,"x_max":869,"o":"m 638 1144 q 642 1110 650 1126 q 619 1093 633 1093 q 601 1099 610 1093 q 583 1110 593 1104 q 561 1122 574 1117 q 532 1126 549 1126 q 490 1113 506 1126 q 461 1084 475 1100 q 428 1055 447 1068 q 375 1042 410 1042 q 292 1066 331 1042 q 232 1118 253 1090 q 226 1153 219 1136 q 250 1169 233 1169 q 268 1165 260 1169 q 286 1153 276 1160 q 308 1142 296 1147 q 338 1136 319 1136 q 376 1149 361 1136 q 408 1178 392 1163 q 447 1208 425 1194 q 504 1221 468 1221 q 582 1197 549 1221 q 638 1144 615 1172 m 869 797 q 853 704 869 744 q 817 628 836 664 q 781 560 797 593 q 764 489 764 526 q 781 418 764 451 q 817 349 797 385 q 853 274 836 314 q 869 181 869 233 q 855 108 869 142 q 815 51 840 75 q 752 13 789 26 q 671 0 715 0 q 529 43 572 0 q 486 165 486 86 q 479 227 486 190 q 460 306 472 264 q 431 388 449 347 q 393 463 414 429 q 349 517 372 496 q 299 538 325 538 q 273 524 283 538 q 261 489 263 511 q 278 418 261 451 q 316 349 296 385 q 353 274 336 314 q 371 181 371 233 q 323 51 371 101 q 186 0 275 0 q 49 51 97 0 q 0 181 0 101 q 16 274 0 233 q 52 349 32 314 q 88 418 72 385 q 104 489 104 451 q 88 560 104 526 q 52 628 72 593 q 16 704 32 664 q 0 797 0 744 q 45 924 0 874 q 174 978 90 974 q 327 937 272 978 q 382 797 382 896 q 400 690 382 744 q 447 590 418 635 q 510 516 475 544 q 576 488 544 488 q 598 494 589 488 q 607 515 607 501 q 590 583 607 554 q 552 640 572 611 q 515 706 532 669 q 497 797 497 743 q 546 927 497 876 q 683 978 594 978 q 821 927 772 978 q 869 797 869 876 z "},"Ò":{"ha":740,"x_min":0,"x_max":711,"o":"m 356 985 q 519 944 451 985 q 628 834 586 903 q 691 676 671 765 q 711 489 711 586 q 691 302 711 392 q 628 144 671 213 q 519 34 586 75 q 356 -7 451 -7 q 192 34 260 -7 q 83 144 125 75 q 20 302 40 213 q 0 489 0 392 q 20 676 0 586 q 83 834 40 765 q 192 944 125 903 q 356 985 260 985 m 356 371 q 451 376 406 371 q 533 396 497 382 q 589 432 568 410 q 610 489 610 454 q 589 547 610 524 q 533 583 568 569 q 451 601 497 596 q 356 607 406 607 q 260 601 306 607 q 178 583 214 596 q 122 547 143 569 q 101 489 101 524 q 122 432 101 454 q 178 396 143 410 q 260 376 214 382 q 356 371 306 371 m 483 1103 q 501 1081 501 1094 q 475 1063 501 1069 q 414 1057 449 1057 q 376 1059 394 1057 q 343 1067 358 1061 q 257 1122 285 1085 q 242 1199 229 1158 q 310 1254 257 1254 q 360 1236 343 1254 q 392 1194 378 1218 q 426 1144 407 1169 q 483 1103 446 1118 z "},"Ó":{"ha":740,"x_min":0,"x_max":711,"o":"m 400 1257 q 468 1201 453 1257 q 453 1124 481 1161 q 367 1069 425 1088 q 333 1062 351 1064 q 296 1060 315 1060 q 235 1066 261 1060 q 208 1083 208 1072 q 226 1106 208 1097 q 283 1147 264 1121 q 317 1197 303 1172 q 349 1239 332 1221 q 400 1257 367 1257 m 356 985 q 519 944 451 985 q 628 834 586 903 q 691 676 671 765 q 711 489 711 586 q 691 302 711 392 q 628 144 671 213 q 519 34 586 75 q 356 -7 451 -7 q 192 34 260 -7 q 83 144 125 75 q 20 302 40 213 q 0 489 0 392 q 20 676 0 586 q 83 834 40 765 q 192 944 125 903 q 356 985 260 985 m 356 371 q 451 376 406 371 q 533 396 497 382 q 589 432 568 410 q 610 489 610 454 q 589 547 610 524 q 533 583 568 569 q 451 601 497 596 q 356 607 406 607 q 260 601 306 607 q 178 583 214 596 q 122 547 143 569 q 101 489 101 524 q 122 432 101 454 q 178 396 143 410 q 260 376 214 382 q 356 371 306 371 z "},"Ô":{"ha":740,"x_min":0,"x_max":711,"o":"m 356 985 q 519 944 451 985 q 628 834 586 903 q 691 676 671 765 q 711 489 711 586 q 691 302 711 392 q 628 144 671 213 q 519 34 586 75 q 356 -7 451 -7 q 192 34 260 -7 q 83 144 125 75 q 20 302 40 213 q 0 489 0 392 q 20 676 0 586 q 83 834 40 765 q 192 944 125 903 q 356 985 260 985 m 356 371 q 451 376 406 371 q 533 396 497 382 q 589 432 568 410 q 610 489 610 454 q 589 547 610 524 q 533 583 568 569 q 451 601 497 596 q 356 607 406 607 q 260 601 306 607 q 178 583 214 596 q 122 547 143 569 q 101 489 101 524 q 122 432 101 454 q 178 396 143 410 q 260 376 214 382 q 356 371 306 371 m 486 1233 q 539 1192 519 1217 q 558 1136 558 1168 q 538 1083 558 1107 q 481 1058 517 1058 q 428 1080 451 1058 q 404 1136 404 1101 q 400 1168 404 1149 q 390 1206 396 1188 q 374 1236 383 1224 q 356 1249 365 1249 q 334 1236 343 1249 q 319 1206 325 1224 q 310 1168 313 1188 q 307 1136 307 1149 q 283 1080 307 1101 q 231 1058 260 1058 q 174 1083 194 1058 q 153 1136 153 1107 q 172 1192 153 1168 q 225 1233 192 1217 q 260 1257 244 1243 q 290 1283 275 1271 q 320 1305 304 1296 q 356 1314 336 1314 q 388 1305 372 1314 q 418 1283 403 1296 q 451 1257 433 1271 q 486 1233 468 1243 z "},"Õ":{"ha":740,"x_min":0,"x_max":711,"o":"m 558 1144 q 563 1110 571 1126 q 540 1093 554 1093 q 522 1099 531 1093 q 504 1110 514 1104 q 482 1122 494 1117 q 453 1126 469 1126 q 411 1113 426 1126 q 382 1084 396 1100 q 349 1055 368 1068 q 296 1042 331 1042 q 213 1066 251 1042 q 153 1118 174 1090 q 147 1153 140 1136 q 171 1169 154 1169 q 189 1165 181 1169 q 207 1153 197 1160 q 228 1142 217 1147 q 258 1136 240 1136 q 297 1149 282 1136 q 329 1178 313 1163 q 367 1208 346 1194 q 425 1221 389 1221 q 503 1197 469 1221 q 558 1144 536 1172 m 356 985 q 519 944 451 985 q 628 834 586 903 q 691 676 671 765 q 711 489 711 586 q 691 302 711 392 q 628 144 671 213 q 519 34 586 75 q 356 -7 451 -7 q 192 34 260 -7 q 83 144 125 75 q 20 302 40 213 q 0 489 0 392 q 20 676 0 586 q 83 834 40 765 q 192 944 125 903 q 356 985 260 985 m 356 371 q 451 376 406 371 q 533 396 497 382 q 589 432 568 410 q 610 489 610 454 q 589 547 610 524 q 533 583 568 569 q 451 601 497 596 q 356 607 406 607 q 260 601 306 607 q 178 583 214 596 q 122 547 143 569 q 101 489 101 524 q 122 432 101 454 q 178 396 143 410 q 260 376 214 382 q 356 371 306 371 z "},"Ö":{"ha":740,"x_min":0,"x_max":711,"o":"m 221 1265 q 306 1238 281 1265 q 331 1161 331 1210 q 306 1085 331 1113 q 221 1058 281 1058 q 136 1085 161 1058 q 111 1161 111 1113 q 136 1238 111 1210 q 221 1265 161 1265 m 492 1265 q 576 1238 551 1265 q 601 1161 601 1210 q 576 1085 601 1113 q 492 1058 551 1058 q 407 1085 432 1058 q 382 1161 382 1113 q 407 1238 382 1210 q 492 1265 432 1265 m 356 985 q 519 944 451 985 q 628 834 586 903 q 691 676 671 765 q 711 489 711 586 q 691 302 711 392 q 628 144 671 213 q 519 34 586 75 q 356 -7 451 -7 q 192 34 260 -7 q 83 144 125 75 q 20 302 40 213 q 0 489 0 392 q 20 676 0 586 q 83 834 40 765 q 192 944 125 903 q 356 985 260 985 m 356 371 q 451 376 406 371 q 533 396 497 382 q 589 432 568 410 q 610 489 610 454 q 589 547 610 524 q 533 583 568 569 q 451 601 497 596 q 356 607 406 607 q 260 601 306 607 q 178 583 214 596 q 122 547 143 569 q 101 489 101 524 q 122 432 101 454 q 178 396 143 410 q 260 376 214 382 q 356 371 306 371 z "},"Š":{"ha":726,"x_min":0,"x_max":697,"o":"m 563 603 q 497 611 525 603 q 443 630 469 619 q 388 649 417 640 q 318 657 358 657 q 279 648 294 657 q 264 621 264 639 q 296 578 264 596 q 376 542 328 560 q 481 504 425 525 q 585 453 536 483 q 665 378 633 422 q 697 268 697 333 q 673 163 697 213 q 602 75 649 113 q 488 15 556 38 q 331 -7 419 -7 q 198 4 258 -7 q 94 38 138 15 q 25 96 50 61 q 0 176 0 131 q 7 244 0 211 q 30 301 14 276 q 72 341 46 326 q 135 356 97 356 q 218 345 185 356 q 278 322 251 335 q 328 298 304 308 q 385 288 351 288 q 425 299 408 288 q 442 333 442 311 q 409 377 442 360 q 328 411 376 394 q 224 449 281 428 q 119 501 167 469 q 38 579 71 532 q 6 697 6 626 q 35 817 6 764 q 115 908 64 871 q 235 965 165 946 q 383 985 304 985 q 517 965 458 985 q 615 911 575 944 q 674 835 654 878 q 694 747 694 792 q 655 642 694 681 q 563 603 615 603 m 236 1139 q 183 1180 203 1156 q 164 1236 164 1204 q 185 1290 164 1267 q 242 1314 206 1314 q 294 1292 271 1314 q 318 1236 318 1271 q 322 1204 318 1224 q 333 1167 326 1185 q 348 1136 339 1149 q 367 1124 357 1124 q 388 1136 379 1124 q 403 1167 397 1149 q 413 1204 410 1185 q 415 1236 415 1224 q 439 1292 415 1271 q 492 1314 463 1314 q 549 1290 528 1314 q 569 1236 569 1267 q 550 1180 569 1204 q 497 1139 531 1156 q 463 1115 479 1129 q 433 1089 447 1101 q 402 1067 418 1076 q 367 1058 386 1058 q 335 1067 350 1058 q 304 1089 319 1076 q 272 1115 289 1101 q 236 1139 256 1129 z "},"Ù":{"ha":886,"x_min":0,"x_max":857,"o":"m 857 817 q 840 722 857 765 q 802 639 822 678 q 765 563 782 600 q 747 489 747 526 q 763 415 747 451 q 797 339 778 378 q 831 256 815 300 q 846 160 846 213 q 840 99 846 128 q 819 48 833 69 q 781 13 804 26 q 725 0 758 0 q 624 28 660 0 q 589 110 589 56 q 592 136 589 126 q 598 153 594 146 q 604 167 601 161 q 607 182 607 174 q 600 199 607 192 q 582 207 593 207 q 555 190 567 207 q 529 148 543 174 q 496 93 515 122 q 445 38 476 64 q 367 -4 414 13 q 253 -21 321 -21 q 161 -2 200 -21 q 97 48 122 17 q 58 118 71 79 q 46 196 46 157 q 56 287 46 249 q 78 357 65 325 q 100 420 90 389 q 110 489 110 451 q 92 563 110 526 q 55 639 75 600 q 17 722 35 678 q 0 817 0 765 q 49 937 0 896 q 186 978 97 978 q 323 937 275 978 q 371 817 371 896 q 358 726 371 765 q 330 654 346 688 q 301 589 314 621 q 289 519 289 557 q 331 388 289 433 q 444 343 374 343 q 505 356 481 343 q 544 392 529 369 q 567 442 560 414 q 574 500 574 469 q 560 572 574 538 q 530 644 546 607 q 500 723 514 681 q 486 817 486 765 q 535 937 486 896 q 672 978 583 978 q 809 937 761 978 q 857 817 857 896 m 563 1103 q 581 1081 581 1094 q 554 1063 581 1069 q 493 1057 528 1057 q 456 1059 474 1057 q 422 1067 438 1061 q 336 1122 364 1085 q 321 1199 308 1158 q 389 1254 336 1254 q 440 1236 422 1254 q 472 1194 457 1218 q 506 1144 486 1169 q 563 1103 525 1118 z "},"Ú":{"ha":886,"x_min":0,"x_max":857,"o":"m 479 1257 q 547 1201 532 1257 q 532 1124 560 1161 q 446 1069 504 1088 q 413 1062 431 1064 q 375 1060 394 1060 q 314 1066 340 1060 q 288 1083 288 1072 q 306 1106 288 1097 q 363 1147 343 1121 q 397 1197 382 1172 q 428 1239 411 1221 q 479 1257 446 1257 m 857 817 q 840 722 857 765 q 802 639 822 678 q 765 563 782 600 q 747 489 747 526 q 763 415 747 451 q 797 339 778 378 q 831 256 815 300 q 846 160 846 213 q 840 99 846 128 q 819 48 833 69 q 781 13 804 26 q 725 0 758 0 q 624 28 660 0 q 589 110 589 56 q 592 136 589 126 q 598 153 594 146 q 604 167 601 161 q 607 182 607 174 q 600 199 607 192 q 582 207 593 207 q 555 190 567 207 q 529 148 543 174 q 496 93 515 122 q 445 38 476 64 q 367 -4 414 13 q 253 -21 321 -21 q 161 -2 200 -21 q 97 48 122 17 q 58 118 71 79 q 46 196 46 157 q 56 287 46 249 q 78 357 65 325 q 100 420 90 389 q 110 489 110 451 q 92 563 110 526 q 55 639 75 600 q 17 722 35 678 q 0 817 0 765 q 49 937 0 896 q 186 978 97 978 q 323 937 275 978 q 371 817 371 896 q 358 726 371 765 q 330 654 346 688 q 301 589 314 621 q 289 519 289 557 q 331 388 289 433 q 444 343 374 343 q 505 356 481 343 q 544 392 529 369 q 567 442 560 414 q 574 500 574 469 q 560 572 574 538 q 530 644 546 607 q 500 723 514 681 q 486 817 486 765 q 535 937 486 896 q 672 978 583 978 q 809 937 761 978 q 857 817 857 896 z "},"Û":{"ha":886,"x_min":0,"x_max":857,"o":"m 857 817 q 840 722 857 765 q 802 639 822 678 q 765 563 782 600 q 747 489 747 526 q 763 415 747 451 q 797 339 778 378 q 831 256 815 300 q 846 160 846 213 q 840 99 846 128 q 819 48 833 69 q 781 13 804 26 q 725 0 758 0 q 624 28 660 0 q 589 110 589 56 q 592 136 589 126 q 598 153 594 146 q 604 167 601 161 q 607 182 607 174 q 600 199 607 192 q 582 207 593 207 q 555 190 567 207 q 529 148 543 174 q 496 93 515 122 q 445 38 476 64 q 367 -4 414 13 q 253 -21 321 -21 q 161 -2 200 -21 q 97 48 122 17 q 58 118 71 79 q 46 196 46 157 q 56 287 46 249 q 78 357 65 325 q 100 420 90 389 q 110 489 110 451 q 92 563 110 526 q 55 639 75 600 q 17 722 35 678 q 0 817 0 765 q 49 937 0 896 q 186 978 97 978 q 323 937 275 978 q 371 817 371 896 q 358 726 371 765 q 330 654 346 688 q 301 589 314 621 q 289 519 289 557 q 331 388 289 433 q 444 343 374 343 q 505 356 481 343 q 544 392 529 369 q 567 442 560 414 q 574 500 574 469 q 560 572 574 538 q 530 644 546 607 q 500 723 514 681 q 486 817 486 765 q 535 937 486 896 q 672 978 583 978 q 809 937 761 978 q 857 817 857 896 m 565 1233 q 618 1192 599 1217 q 638 1136 638 1168 q 617 1083 638 1107 q 560 1058 596 1058 q 507 1080 531 1058 q 483 1136 483 1101 q 479 1168 483 1149 q 469 1206 475 1188 q 453 1236 463 1224 q 435 1249 444 1249 q 413 1236 422 1249 q 398 1206 404 1224 q 389 1168 392 1188 q 386 1136 386 1149 q 363 1080 386 1101 q 310 1058 339 1058 q 253 1083 274 1058 q 232 1136 232 1107 q 251 1192 232 1168 q 304 1233 271 1217 q 339 1257 324 1243 q 369 1283 354 1271 q 399 1305 383 1296 q 435 1314 415 1314 q 467 1305 451 1314 q 497 1283 482 1296 q 530 1257 513 1271 q 565 1233 547 1243 z "},"Ü":{"ha":886,"x_min":0,"x_max":857,"o":"m 300 1265 q 385 1238 360 1265 q 410 1161 410 1210 q 385 1085 410 1113 q 300 1058 360 1058 q 215 1085 240 1058 q 190 1161 190 1113 q 215 1238 190 1210 q 300 1265 240 1265 m 571 1265 q 656 1238 631 1265 q 681 1161 681 1210 q 656 1085 681 1113 q 571 1058 631 1058 q 486 1085 511 1058 q 461 1161 461 1113 q 486 1238 461 1210 q 571 1265 511 1265 m 857 817 q 840 722 857 765 q 802 639 822 678 q 765 563 782 600 q 747 489 747 526 q 763 415 747 451 q 797 339 778 378 q 831 256 815 300 q 846 160 846 213 q 840 99 846 128 q 819 48 833 69 q 781 13 804 26 q 725 0 758 0 q 624 28 660 0 q 589 110 589 56 q 592 136 589 126 q 598 153 594 146 q 604 167 601 161 q 607 182 607 174 q 600 199 607 192 q 582 207 593 207 q 555 190 567 207 q 529 148 543 174 q 496 93 515 122 q 445 38 476 64 q 367 -4 414 13 q 253 -21 321 -21 q 161 -2 200 -21 q 97 48 122 17 q 58 118 71 79 q 46 196 46 157 q 56 287 46 249 q 78 357 65 325 q 100 420 90 389 q 110 489 110 451 q 92 563 110 526 q 55 639 75 600 q 17 722 35 678 q 0 817 0 765 q 49 937 0 896 q 186 978 97 978 q 323 937 275 978 q 371 817 371 896 q 358 726 371 765 q 330 654 346 688 q 301 589 314 621 q 289 519 289 557 q 331 388 289 433 q 444 343 374 343 q 505 356 481 343 q 544 392 529 369 q 567 442 560 414 q 574 500 574 469 q 560 572 574 538 q 530 644 546 607 q 500 723 514 681 q 486 817 486 765 q 535 937 486 896 q 672 978 583 978 q 809 937 761 978 q 857 817 857 896 z "},"Ÿ":{"ha":815,"x_min":-4,"x_max":786,"o":"m 267 1265 q 351 1238 326 1265 q 376 1161 376 1210 q 351 1085 376 1113 q 267 1058 326 1058 q 182 1085 207 1058 q 157 1161 157 1113 q 182 1238 157 1210 q 267 1265 207 1265 m 538 1265 q 622 1238 597 1265 q 647 1161 647 1210 q 622 1085 647 1113 q 538 1058 597 1058 q 453 1085 478 1058 q 428 1161 428 1113 q 453 1238 428 1210 q 538 1265 478 1265 m 786 814 q 778 728 786 765 q 760 657 769 690 q 743 590 751 624 q 735 513 735 556 q 741 422 735 454 q 754 362 747 389 q 767 303 761 335 q 774 214 774 271 q 755 115 774 156 q 694 49 736 75 q 585 12 653 24 q 418 0 517 0 q 237 19 306 0 q 131 69 168 39 q 81 133 93 99 q 69 199 69 168 q 101 310 69 265 q 189 356 133 356 q 253 351 218 356 q 323 341 288 346 q 393 331 358 336 q 457 326 428 326 q 524 340 497 326 q 550 390 550 354 q 481 444 550 444 q 434 436 454 444 q 389 417 414 428 q 329 398 364 407 q 242 389 294 389 q 154 401 194 389 q 85 438 114 414 q 43 500 57 463 q 33 588 29 538 q 35 653 36 626 q 32 703 35 679 q 23 752 29 726 q 7 814 17 778 q 5 885 -4 854 q 36 936 14 915 q 92 967 58 957 q 167 978 126 978 q 285 938 240 978 q 331 836 331 899 q 322 756 331 801 q 313 672 313 711 q 319 636 313 654 q 336 604 325 618 q 361 582 347 590 q 392 574 375 574 q 448 602 426 574 q 469 669 469 631 q 458 747 469 707 q 447 836 447 786 q 497 938 447 899 q 621 978 547 978 q 744 938 701 978 q 786 814 786 897 z "},"Ý":{"ha":815,"x_min":-4,"x_max":786,"o":"m 446 1257 q 514 1201 499 1257 q 499 1124 526 1161 q 413 1069 471 1088 q 379 1062 397 1064 q 342 1060 361 1060 q 281 1066 307 1060 q 254 1083 254 1072 q 272 1106 254 1097 q 329 1147 310 1121 q 363 1197 349 1172 q 395 1239 378 1221 q 446 1257 413 1257 m 786 814 q 778 728 786 765 q 760 657 769 690 q 743 590 751 624 q 735 513 735 556 q 741 422 735 454 q 754 362 747 389 q 767 303 761 335 q 774 214 774 271 q 755 115 774 156 q 694 49 736 75 q 585 12 653 24 q 418 0 517 0 q 237 19 306 0 q 131 69 168 39 q 81 133 93 99 q 69 199 69 168 q 101 310 69 265 q 189 356 133 356 q 253 351 218 356 q 323 341 288 346 q 393 331 358 336 q 457 326 428 326 q 524 340 497 326 q 550 390 550 354 q 481 444 550 444 q 434 436 454 444 q 389 417 414 428 q 329 398 364 407 q 242 389 294 389 q 154 401 194 389 q 85 438 114 414 q 43 500 57 463 q 33 588 29 538 q 35 653 36 626 q 32 703 35 679 q 23 752 29 726 q 7 814 17 778 q 5 885 -4 854 q 36 936 14 915 q 92 967 58 957 q 167 978 126 978 q 285 938 240 978 q 331 836 331 899 q 322 756 331 801 q 313 672 313 711 q 319 636 313 654 q 336 604 325 618 q 361 582 347 590 q 392 574 375 574 q 448 602 426 574 q 469 669 469 631 q 458 747 469 707 q 447 836 447 786 q 497 938 447 899 q 621 978 547 978 q 744 938 701 978 q 786 814 786 897 z "},"Ž":{"ha":726,"x_min":0,"x_max":697,"o":"m 569 331 q 632 316 607 331 q 672 278 657 301 q 692 222 686 254 q 697 156 697 190 q 666 69 697 100 q 583 22 635 38 q 465 3 532 7 q 326 0 399 0 q 173 12 235 0 q 72 50 111 24 q 17 119 33 76 q 0 224 0 163 q 28 310 0 268 q 99 392 56 353 q 195 469 142 432 q 300 538 249 506 q 368 587 346 565 q 396 622 390 608 q 392 643 401 636 q 368 650 383 650 q 317 649 339 650 q 269 649 294 649 q 212 648 244 649 q 129 647 179 647 q 65 662 90 647 q 26 700 40 676 q 6 756 11 724 q 0 822 0 788 q 31 909 0 878 q 114 956 63 940 q 233 976 165 972 q 372 979 300 979 q 525 974 463 979 q 626 945 588 968 q 681 878 664 922 q 697 754 697 833 q 672 664 697 708 q 607 578 647 619 q 516 501 567 538 q 413 435 465 465 q 331 380 357 403 q 298 343 304 357 q 302 323 292 329 q 329 317 313 317 q 381 319 358 317 q 428 324 403 321 q 485 328 453 326 q 569 331 518 331 m 218 1139 q 165 1180 185 1156 q 146 1236 146 1204 q 167 1290 146 1267 q 224 1314 188 1314 q 276 1292 253 1314 q 300 1236 300 1271 q 304 1204 300 1224 q 315 1167 308 1185 q 330 1136 321 1149 q 349 1124 339 1124 q 370 1136 361 1124 q 385 1167 379 1149 q 394 1204 392 1185 q 397 1236 397 1224 q 421 1292 397 1271 q 474 1314 444 1314 q 531 1290 510 1314 q 551 1236 551 1267 q 532 1180 551 1204 q 479 1139 513 1156 q 445 1115 461 1129 q 415 1089 429 1101 q 384 1067 400 1076 q 349 1058 368 1058 q 317 1067 332 1058 q 286 1089 301 1076 q 254 1115 271 1101 q 218 1139 238 1129 z "},"à":{"ha":685,"x_min":0,"x_max":656,"o":"m 604 385 q 613 315 604 347 q 630 252 621 282 q 647 194 639 222 q 656 138 656 167 q 622 36 656 72 q 521 0 588 0 q 484 6 500 0 q 455 19 468 13 q 428 33 442 26 q 400 39 415 39 q 374 32 386 39 q 346 16 363 25 q 304 0 329 7 q 238 -7 279 -7 q 158 3 200 -7 q 81 38 117 14 q 23 102 46 61 q 0 203 0 143 q 26 315 0 272 q 92 387 53 358 q 178 433 132 415 q 265 472 225 451 q 331 519 304 492 q 357 590 357 546 q 347 616 357 606 q 322 626 336 626 q 278 612 299 626 q 257 561 257 597 q 222 490 257 522 q 125 457 188 457 q 42 488 78 457 q 7 565 7 519 q 30 647 7 610 q 92 712 53 685 q 185 754 132 739 q 299 769 239 769 q 483 751 415 769 q 585 701 551 732 q 626 631 619 671 q 628 547 633 590 q 614 463 624 504 q 604 385 604 421 m 288 304 q 301 235 288 265 q 338 206 315 206 q 386 233 369 206 q 403 311 403 261 q 387 381 403 360 q 353 403 371 403 q 304 376 321 403 q 288 304 288 350 m 463 894 q 481 872 481 886 q 454 855 481 861 q 393 849 428 849 q 356 851 374 849 q 322 858 338 853 q 236 913 264 876 q 221 990 208 950 q 289 1046 236 1046 q 340 1028 322 1046 q 372 985 357 1010 q 406 935 386 961 q 463 894 425 910 z "},"á":{"ha":685,"x_min":0,"x_max":656,"o":"m 379 1049 q 447 993 432 1049 q 432 916 460 953 q 346 861 404 879 q 313 853 331 856 q 275 851 294 851 q 214 858 240 851 q 188 875 188 864 q 206 897 188 889 q 263 938 243 913 q 297 988 282 964 q 328 1031 311 1013 q 379 1049 346 1049 m 604 385 q 613 315 604 347 q 630 252 621 282 q 647 194 639 222 q 656 138 656 167 q 622 36 656 72 q 521 0 588 0 q 484 6 500 0 q 455 19 468 13 q 428 33 442 26 q 400 39 415 39 q 374 32 386 39 q 346 16 363 25 q 304 0 329 7 q 238 -7 279 -7 q 158 3 200 -7 q 81 38 117 14 q 23 102 46 61 q 0 203 0 143 q 26 315 0 272 q 92 387 53 358 q 178 433 132 415 q 265 472 225 451 q 331 519 304 492 q 357 590 357 546 q 347 616 357 606 q 322 626 336 626 q 278 612 299 626 q 257 561 257 597 q 222 490 257 522 q 125 457 188 457 q 42 488 78 457 q 7 565 7 519 q 30 647 7 610 q 92 712 53 685 q 185 754 132 739 q 299 769 239 769 q 483 751 415 769 q 585 701 551 732 q 626 631 619 671 q 628 547 633 590 q 614 463 624 504 q 604 385 604 421 m 288 304 q 301 235 288 265 q 338 206 315 206 q 386 233 369 206 q 403 311 403 261 q 387 381 403 360 q 353 403 371 403 q 304 376 321 403 q 288 304 288 350 z "},"â":{"ha":685,"x_min":0,"x_max":656,"o":"m 604 385 q 613 315 604 347 q 630 252 621 282 q 647 194 639 222 q 656 138 656 167 q 622 36 656 72 q 521 0 588 0 q 484 6 500 0 q 455 19 468 13 q 428 33 442 26 q 400 39 415 39 q 374 32 386 39 q 346 16 363 25 q 304 0 329 7 q 238 -7 279 -7 q 158 3 200 -7 q 81 38 117 14 q 23 102 46 61 q 0 203 0 143 q 26 315 0 272 q 92 387 53 358 q 178 433 132 415 q 265 472 225 451 q 331 519 304 492 q 357 590 357 546 q 347 616 357 606 q 322 626 336 626 q 278 612 299 626 q 257 561 257 597 q 222 490 257 522 q 125 457 188 457 q 42 488 78 457 q 7 565 7 519 q 30 647 7 610 q 92 712 53 685 q 185 754 132 739 q 299 769 239 769 q 483 751 415 769 q 585 701 551 732 q 626 631 619 671 q 628 547 633 590 q 614 463 624 504 q 604 385 604 421 m 288 304 q 301 235 288 265 q 338 206 315 206 q 386 233 369 206 q 403 311 403 261 q 387 381 403 360 q 353 403 371 403 q 304 376 321 403 q 288 304 288 350 m 465 1025 q 518 984 499 1008 q 538 928 538 960 q 517 874 538 899 q 460 850 496 850 q 407 872 431 850 q 383 928 383 893 q 379 960 383 940 q 369 997 375 979 q 353 1028 363 1015 q 335 1040 344 1040 q 313 1028 322 1040 q 298 997 304 1015 q 289 960 292 979 q 286 928 286 940 q 263 872 286 893 q 210 850 239 850 q 153 874 174 850 q 132 928 132 899 q 151 984 132 960 q 204 1025 171 1008 q 239 1049 224 1035 q 269 1075 254 1063 q 299 1097 283 1088 q 335 1106 315 1106 q 367 1097 351 1106 q 397 1075 382 1088 q 430 1049 413 1063 q 465 1025 447 1035 z "},"ã":{"ha":685,"x_min":0,"x_max":656,"o":"m 538 936 q 542 901 550 918 q 519 885 533 885 q 501 890 510 885 q 483 902 493 896 q 461 913 474 908 q 432 918 449 918 q 390 905 406 918 q 361 876 375 892 q 328 847 347 860 q 275 833 310 833 q 192 858 231 833 q 132 910 153 882 q 126 944 119 928 q 150 961 133 961 q 168 956 160 961 q 186 945 176 951 q 208 933 196 939 q 238 928 219 928 q 276 941 261 928 q 308 970 292 954 q 347 999 325 986 q 404 1013 368 1013 q 482 988 449 1013 q 538 936 515 964 m 604 385 q 613 315 604 347 q 630 252 621 282 q 647 194 639 222 q 656 138 656 167 q 622 36 656 72 q 521 0 588 0 q 484 6 500 0 q 455 19 468 13 q 428 33 442 26 q 400 39 415 39 q 374 32 386 39 q 346 16 363 25 q 304 0 329 7 q 238 -7 279 -7 q 158 3 200 -7 q 81 38 117 14 q 23 102 46 61 q 0 203 0 143 q 26 315 0 272 q 92 387 53 358 q 178 433 132 415 q 265 472 225 451 q 331 519 304 492 q 357 590 357 546 q 347 616 357 606 q 322 626 336 626 q 278 612 299 626 q 257 561 257 597 q 222 490 257 522 q 125 457 188 457 q 42 488 78 457 q 7 565 7 519 q 30 647 7 610 q 92 712 53 685 q 185 754 132 739 q 299 769 239 769 q 483 751 415 769 q 585 701 551 732 q 626 631 619 671 q 628 547 633 590 q 614 463 624 504 q 604 385 604 421 m 288 304 q 301 235 288 265 q 338 206 315 206 q 386 233 369 206 q 403 311 403 261 q 387 381 403 360 q 353 403 371 403 q 304 376 321 403 q 288 304 288 350 z "},"ä":{"ha":685,"x_min":0,"x_max":656,"o":"m 200 1057 q 285 1029 260 1057 q 310 953 310 1001 q 285 877 310 904 q 200 850 260 850 q 115 877 140 850 q 90 953 90 904 q 115 1029 90 1001 q 200 1057 140 1057 m 471 1057 q 556 1029 531 1057 q 581 953 581 1001 q 556 877 581 904 q 471 850 531 850 q 386 877 411 850 q 361 953 361 904 q 386 1029 361 1001 q 471 1057 411 1057 m 604 385 q 613 315 604 347 q 630 252 621 282 q 647 194 639 222 q 656 138 656 167 q 622 36 656 72 q 521 0 588 0 q 484 6 500 0 q 455 19 468 13 q 428 33 442 26 q 400 39 415 39 q 374 32 386 39 q 346 16 363 25 q 304 0 329 7 q 238 -7 279 -7 q 158 3 200 -7 q 81 38 117 14 q 23 102 46 61 q 0 203 0 143 q 26 315 0 272 q 92 387 53 358 q 178 433 132 415 q 265 472 225 451 q 331 519 304 492 q 357 590 357 546 q 347 616 357 606 q 322 626 336 626 q 278 612 299 626 q 257 561 257 597 q 222 490 257 522 q 125 457 188 457 q 42 488 78 457 q 7 565 7 519 q 30 647 7 610 q 92 712 53 685 q 185 754 132 739 q 299 769 239 769 q 483 751 415 769 q 585 701 551 732 q 626 631 619 671 q 628 547 633 590 q 614 463 624 504 q 604 385 604 421 m 288 304 q 301 235 288 265 q 338 206 315 206 q 386 233 369 206 q 403 311 403 261 q 387 381 403 360 q 353 403 371 403 q 304 376 321 403 q 288 304 288 350 z "},"å":{"ha":685,"x_min":0,"x_max":656,"o":"m 447 964 q 415 883 447 917 q 335 850 382 850 q 254 883 288 850 q 221 964 221 917 q 254 1044 221 1011 q 335 1078 288 1078 q 415 1044 382 1078 q 447 964 447 1011 m 335 1017 q 297 1001 313 1017 q 282 964 282 986 q 297 926 282 942 q 335 911 313 911 q 371 926 356 911 q 386 964 386 942 q 371 1001 386 986 q 335 1017 356 1017 m 604 385 q 613 315 604 347 q 630 252 621 282 q 647 194 639 222 q 656 138 656 167 q 622 36 656 72 q 521 0 588 0 q 484 6 500 0 q 455 19 468 13 q 428 33 442 26 q 400 39 415 39 q 374 32 386 39 q 346 16 363 25 q 304 0 329 7 q 238 -7 279 -7 q 158 3 200 -7 q 81 38 117 14 q 23 102 46 61 q 0 203 0 143 q 26 315 0 272 q 92 387 53 358 q 178 433 132 415 q 265 472 225 451 q 331 519 304 492 q 357 590 357 546 q 347 616 357 606 q 322 626 336 626 q 278 612 299 626 q 257 561 257 597 q 222 490 257 522 q 125 457 188 457 q 42 488 78 457 q 7 565 7 519 q 30 647 7 610 q 92 712 53 685 q 185 754 132 739 q 299 769 239 769 q 483 751 415 769 q 585 701 551 732 q 626 631 619 671 q 628 547 633 590 q 614 463 624 504 q 604 385 604 421 m 288 304 q 301 235 288 265 q 338 206 315 206 q 386 233 369 206 q 403 311 403 261 q 387 381 403 360 q 353 403 371 403 q 304 376 321 403 q 288 304 288 350 z "},"è":{"ha":611,"x_min":0,"x_max":604,"o":"m 468 335 q 526 322 500 335 q 569 286 551 308 q 595 235 586 264 q 604 178 604 207 q 583 101 604 135 q 523 42 561 67 q 431 6 485 18 q 315 -7 378 -7 q 165 26 225 -7 q 67 113 104 58 q 15 238 31 167 q 0 385 0 308 q 17 527 0 457 q 70 653 33 597 q 167 742 107 708 q 311 776 226 776 q 433 758 381 776 q 522 710 486 740 q 576 641 558 679 q 594 561 594 603 q 569 460 594 499 q 501 399 543 421 q 403 371 458 378 q 289 367 349 364 q 251 359 263 368 q 239 339 239 350 q 249 318 239 328 q 278 308 260 308 q 332 313 310 308 q 375 322 354 317 q 417 331 396 326 q 468 335 439 335 m 193 518 q 231 476 193 486 q 322 467 269 465 q 408 481 378 468 q 438 521 438 493 q 401 560 436 547 q 317 574 367 574 q 271 571 293 574 q 231 562 249 568 q 203 544 214 556 q 193 518 193 533 m 426 894 q 444 872 444 886 q 418 855 444 861 q 357 849 392 849 q 319 851 338 849 q 286 858 301 853 q 200 913 228 876 q 185 990 172 950 q 253 1046 200 1046 q 303 1028 286 1046 q 335 985 321 1010 q 369 935 350 961 q 426 894 389 910 z "},"é":{"ha":611,"x_min":0,"x_max":604,"o":"m 343 1049 q 411 993 396 1049 q 396 916 424 953 q 310 861 368 879 q 276 853 294 856 q 239 851 258 851 q 178 858 204 851 q 151 875 151 864 q 169 897 151 889 q 226 938 207 913 q 260 988 246 964 q 292 1031 275 1013 q 343 1049 310 1049 m 468 335 q 526 322 500 335 q 569 286 551 308 q 595 235 586 264 q 604 178 604 207 q 583 101 604 135 q 523 42 561 67 q 431 6 485 18 q 315 -7 378 -7 q 165 26 225 -7 q 67 113 104 58 q 15 238 31 167 q 0 385 0 308 q 17 527 0 457 q 70 653 33 597 q 167 742 107 708 q 311 776 226 776 q 433 758 381 776 q 522 710 486 740 q 576 641 558 679 q 594 561 594 603 q 569 460 594 499 q 501 399 543 421 q 403 371 458 378 q 289 367 349 364 q 251 359 263 368 q 239 339 239 350 q 249 318 239 328 q 278 308 260 308 q 332 313 310 308 q 375 322 354 317 q 417 331 396 326 q 468 335 439 335 m 193 518 q 231 476 193 486 q 322 467 269 465 q 408 481 378 468 q 438 521 438 493 q 401 560 436 547 q 317 574 367 574 q 271 571 293 574 q 231 562 249 568 q 203 544 214 556 q 193 518 193 533 z "},"ê":{"ha":611,"x_min":0,"x_max":604,"o":"m 468 335 q 526 322 500 335 q 569 286 551 308 q 595 235 586 264 q 604 178 604 207 q 583 101 604 135 q 523 42 561 67 q 431 6 485 18 q 315 -7 378 -7 q 165 26 225 -7 q 67 113 104 58 q 15 238 31 167 q 0 385 0 308 q 17 527 0 457 q 70 653 33 597 q 167 742 107 708 q 311 776 226 776 q 433 758 381 776 q 522 710 486 740 q 576 641 558 679 q 594 561 594 603 q 569 460 594 499 q 501 399 543 421 q 403 371 458 378 q 289 367 349 364 q 251 359 263 368 q 239 339 239 350 q 249 318 239 328 q 278 308 260 308 q 332 313 310 308 q 375 322 354 317 q 417 331 396 326 q 468 335 439 335 m 193 518 q 231 476 193 486 q 322 467 269 465 q 408 481 378 468 q 438 521 438 493 q 401 560 436 547 q 317 574 367 574 q 271 571 293 574 q 231 562 249 568 q 203 544 214 556 q 193 518 193 533 m 429 1025 q 482 984 463 1008 q 501 928 501 960 q 481 874 501 899 q 424 850 460 850 q 371 872 394 850 q 347 928 347 893 q 343 960 347 940 q 333 997 339 979 q 317 1028 326 1015 q 299 1040 308 1040 q 277 1028 286 1040 q 262 997 268 1015 q 253 960 256 979 q 250 928 250 940 q 226 872 250 893 q 174 850 203 850 q 117 874 138 850 q 96 928 96 899 q 115 984 96 960 q 168 1025 135 1008 q 203 1049 188 1035 q 233 1075 218 1063 q 263 1097 247 1088 q 299 1106 279 1106 q 331 1097 315 1106 q 361 1075 346 1088 q 394 1049 376 1063 q 429 1025 411 1035 z "},"ë":{"ha":611,"x_min":0,"x_max":604,"o":"m 164 1057 q 249 1029 224 1057 q 274 953 274 1001 q 249 877 274 904 q 164 850 224 850 q 79 877 104 850 q 54 953 54 904 q 79 1029 54 1001 q 164 1057 104 1057 m 435 1057 q 519 1029 494 1057 q 544 953 544 1001 q 519 877 544 904 q 435 850 494 850 q 350 877 375 850 q 325 953 325 904 q 350 1029 325 1001 q 435 1057 375 1057 m 468 335 q 526 322 500 335 q 569 286 551 308 q 595 235 586 264 q 604 178 604 207 q 583 101 604 135 q 523 42 561 67 q 431 6 485 18 q 315 -7 378 -7 q 165 26 225 -7 q 67 113 104 58 q 15 238 31 167 q 0 385 0 308 q 17 527 0 457 q 70 653 33 597 q 167 742 107 708 q 311 776 226 776 q 433 758 381 776 q 522 710 486 740 q 576 641 558 679 q 594 561 594 603 q 569 460 594 499 q 501 399 543 421 q 403 371 458 378 q 289 367 349 364 q 251 359 263 368 q 239 339 239 350 q 249 318 239 328 q 278 308 260 308 q 332 313 310 308 q 375 322 354 317 q 417 331 396 326 q 468 335 439 335 m 193 518 q 231 476 193 486 q 322 467 269 465 q 408 481 378 468 q 438 521 438 493 q 401 560 436 547 q 317 574 367 574 q 271 571 293 574 q 231 562 249 568 q 203 544 214 556 q 193 518 193 533 z "},"ì":{"ha":335,"x_min":0,"x_max":307,"o":"m 281 894 q 299 872 299 886 q 272 855 299 861 q 211 849 246 849 q 174 851 192 849 q 140 858 156 853 q 54 913 82 876 q 39 990 26 950 q 107 1046 54 1046 q 158 1028 140 1046 q 190 985 175 1010 q 224 935 204 961 q 281 894 243 910 m 307 138 q 263 36 307 72 q 153 0 219 0 q 44 36 88 0 q 0 138 0 72 q 8 209 0 179 q 24 265 15 239 q 40 319 32 292 q 47 385 47 347 q 41 450 47 422 q 26 504 35 478 q 12 560 18 531 q 6 632 6 590 q 47 733 6 697 q 153 769 88 769 q 260 733 219 769 q 301 632 301 697 q 295 560 301 590 q 281 504 289 531 q 266 450 272 478 q 260 385 260 422 q 267 319 260 347 q 283 265 275 292 q 299 209 292 239 q 307 138 307 179 z "},"í":{"ha":335,"x_min":0,"x_max":307,"o":"m 197 1049 q 265 993 250 1049 q 250 916 278 953 q 164 861 222 879 q 115 853 142 854 q 63 853 88 851 q 22 861 39 856 q 6 875 6 867 q 24 897 6 889 q 81 938 61 913 q 115 988 100 964 q 147 1031 129 1013 q 197 1049 164 1049 m 307 138 q 263 36 307 72 q 153 0 219 0 q 44 36 88 0 q 0 138 0 72 q 8 209 0 179 q 24 265 15 239 q 40 319 32 292 q 47 385 47 347 q 41 450 47 422 q 26 504 35 478 q 12 560 18 531 q 6 632 6 590 q 47 733 6 697 q 153 769 88 769 q 260 733 219 769 q 301 632 301 697 q 295 560 301 590 q 281 504 289 531 q 266 450 272 478 q 260 385 260 422 q 267 319 260 347 q 283 265 275 292 q 299 209 292 239 q 307 138 307 179 z "},"î":{"ha":335,"x_min":-50,"x_max":356,"o":"m 283 1025 q 336 984 317 1008 q 356 928 356 960 q 335 874 356 899 q 278 850 314 850 q 225 872 249 850 q 201 928 201 893 q 197 960 201 940 q 187 997 193 979 q 172 1028 181 1015 q 153 1040 163 1040 q 131 1028 140 1040 q 116 997 122 1015 q 107 960 110 979 q 104 928 104 940 q 81 872 104 893 q 28 850 57 850 q -29 874 -8 850 q -50 928 -50 899 q -31 984 -50 960 q 22 1025 -11 1008 q 57 1049 42 1035 q 87 1075 72 1063 q 117 1097 101 1088 q 153 1106 133 1106 q 185 1097 169 1106 q 215 1075 200 1088 q 248 1049 231 1063 q 283 1025 265 1035 m 307 138 q 263 36 307 72 q 153 0 219 0 q 44 36 88 0 q 0 138 0 72 q 8 209 0 179 q 24 265 15 239 q 40 319 32 292 q 47 385 47 347 q 41 450 47 422 q 26 504 35 478 q 12 560 18 531 q 6 632 6 590 q 47 733 6 697 q 153 769 88 769 q 260 733 219 769 q 301 632 301 697 q 295 560 301 590 q 281 504 289 531 q 266 450 272 478 q 260 385 260 422 q 267 319 260 347 q 283 265 275 292 q 299 209 292 239 q 307 138 307 179 z "},"ï":{"ha":335,"x_min":-92,"x_max":399,"o":"m 18 1057 q 103 1029 78 1057 q 128 953 128 1001 q 103 877 128 904 q 18 850 78 850 q -67 877 -42 850 q -92 953 -92 904 q -67 1029 -92 1001 q 18 1057 -42 1057 m 289 1057 q 374 1029 349 1057 q 399 953 399 1001 q 374 877 399 904 q 289 850 349 850 q 204 877 229 850 q 179 953 179 904 q 204 1029 179 1001 q 289 1057 229 1057 m 307 138 q 263 36 307 72 q 153 0 219 0 q 44 36 88 0 q 0 138 0 72 q 8 209 0 179 q 24 265 15 239 q 40 319 32 292 q 47 385 47 347 q 41 450 47 422 q 26 504 35 478 q 12 560 18 531 q 6 632 6 590 q 47 733 6 697 q 153 769 88 769 q 260 733 219 769 q 301 632 301 697 q 295 560 301 590 q 281 504 289 531 q 266 450 272 478 q 260 385 260 422 q 267 319 260 347 q 283 265 275 292 q 299 209 292 239 q 307 138 307 179 z "},"ñ":{"ha":785,"x_min":0,"x_max":743,"o":"m 581 936 q 585 901 593 918 q 563 885 576 885 q 544 890 553 885 q 526 902 536 896 q 504 913 517 908 q 475 918 492 918 q 433 905 449 918 q 404 876 418 892 q 372 847 390 860 q 318 833 353 833 q 235 858 274 833 q 175 910 196 882 q 169 944 163 928 q 193 961 176 961 q 211 956 203 961 q 229 945 219 951 q 251 933 239 939 q 281 928 263 928 q 319 941 304 928 q 351 970 335 954 q 390 999 368 986 q 447 1013 411 1013 q 525 988 492 1013 q 581 936 558 964 m 675 415 q 685 347 675 378 q 709 285 696 315 q 733 222 722 254 q 743 147 743 189 q 701 38 743 76 q 585 0 660 0 q 468 38 510 0 q 426 147 426 76 q 438 212 426 183 q 461 266 449 240 q 485 317 474 292 q 496 375 496 343 q 490 426 496 403 q 467 469 483 450 q 426 498 451 488 q 361 508 400 508 q 314 502 336 508 q 275 481 292 496 q 248 443 258 467 q 238 385 238 419 q 250 317 238 343 q 278 267 263 290 q 306 216 293 243 q 318 147 318 189 q 276 38 318 76 q 160 0 235 0 q 43 38 85 0 q 1 147 1 76 q 12 217 1 189 q 34 269 22 244 q 56 321 46 294 q 67 385 67 347 q 56 458 67 422 q 33 526 46 493 q 10 588 21 558 q 0 642 0 617 q 35 741 0 713 q 138 769 71 769 q 195 763 171 769 q 238 748 219 756 q 272 733 257 740 q 299 726 286 726 q 330 733 315 726 q 365 748 344 740 q 416 763 386 756 q 493 769 446 769 q 583 756 543 769 q 651 718 624 742 q 694 662 679 694 q 710 593 710 629 q 704 542 710 563 q 692 503 699 521 q 681 465 686 485 q 675 415 675 446 z "},"ü":{"ha":785,"x_min":0,"x_max":756,"o":"m 243 1057 q 328 1029 303 1057 q 353 953 353 1001 q 328 877 353 904 q 243 850 303 850 q 158 877 183 850 q 133 953 133 904 q 158 1029 133 1001 q 243 1057 183 1057 m 514 1057 q 599 1029 574 1057 q 624 953 624 1001 q 599 877 624 904 q 514 850 574 850 q 429 877 454 850 q 404 953 404 904 q 429 1029 404 1001 q 514 1057 454 1057 m 756 622 q 743 553 756 581 q 716 500 731 525 q 689 449 701 475 q 676 385 676 422 q 687 317 676 347 q 710 257 697 286 q 733 197 722 228 q 743 128 743 167 q 710 28 743 57 q 632 0 678 0 q 571 11 596 0 q 528 35 546 22 q 497 60 510 49 q 471 71 483 71 q 435 59 450 71 q 399 33 419 47 q 345 6 378 18 q 258 -7 313 -7 q 164 10 204 -7 q 98 56 124 28 q 59 119 72 83 q 46 194 46 156 q 49 236 46 219 q 57 269 53 253 q 65 304 61 285 q 68 354 68 324 q 58 423 68 392 q 34 485 47 454 q 10 548 21 515 q 0 622 0 581 q 42 731 0 693 q 158 769 83 769 q 275 731 233 769 q 317 622 317 693 q 306 558 317 586 q 281 504 294 529 q 256 455 267 479 q 244 401 244 431 q 252 349 244 376 q 277 301 260 322 q 322 265 294 279 q 388 251 349 251 q 435 257 413 251 q 474 277 457 263 q 503 318 492 292 q 518 385 515 344 q 506 449 518 422 q 478 500 493 475 q 451 553 464 525 q 439 622 439 581 q 481 731 439 693 q 597 769 522 769 q 714 731 672 769 q 756 622 756 693 z "},"û":{"ha":785,"x_min":0,"x_max":756,"o":"m 756 622 q 743 553 756 581 q 716 500 731 525 q 689 449 701 475 q 676 385 676 422 q 687 317 676 347 q 710 257 697 286 q 733 197 722 228 q 743 128 743 167 q 710 28 743 57 q 632 0 678 0 q 571 11 596 0 q 528 35 546 22 q 497 60 510 49 q 471 71 483 71 q 435 59 450 71 q 399 33 419 47 q 345 6 378 18 q 258 -7 313 -7 q 164 10 204 -7 q 98 56 124 28 q 59 119 72 83 q 46 194 46 156 q 49 236 46 219 q 57 269 53 253 q 65 304 61 285 q 68 354 68 324 q 58 423 68 392 q 34 485 47 454 q 10 548 21 515 q 0 622 0 581 q 42 731 0 693 q 158 769 83 769 q 275 731 233 769 q 317 622 317 693 q 306 558 317 586 q 281 504 294 529 q 256 455 267 479 q 244 401 244 431 q 252 349 244 376 q 277 301 260 322 q 322 265 294 279 q 388 251 349 251 q 435 257 413 251 q 474 277 457 263 q 503 318 492 292 q 518 385 515 344 q 506 449 518 422 q 478 500 493 475 q 451 553 464 525 q 439 622 439 581 q 481 731 439 693 q 597 769 522 769 q 714 731 672 769 q 756 622 756 693 m 508 1025 q 561 984 542 1008 q 581 928 581 960 q 560 874 581 899 q 503 850 539 850 q 450 872 474 850 q 426 928 426 893 q 422 960 426 940 q 412 997 418 979 q 397 1028 406 1015 q 378 1040 388 1040 q 356 1028 365 1040 q 341 997 347 1015 q 332 960 335 979 q 329 928 329 940 q 306 872 329 893 q 253 850 282 850 q 196 874 217 850 q 175 928 175 899 q 194 984 175 960 q 247 1025 214 1008 q 282 1049 267 1035 q 312 1075 297 1063 q 342 1097 326 1088 q 378 1106 358 1106 q 410 1097 394 1106 q 440 1075 425 1088 q 473 1049 456 1063 q 508 1025 490 1035 z "},"ú":{"ha":785,"x_min":0,"x_max":756,"o":"m 422 1049 q 490 993 475 1049 q 475 916 503 953 q 389 861 447 879 q 356 853 374 856 q 318 851 338 851 q 257 858 283 851 q 231 875 231 864 q 249 897 231 889 q 306 938 286 913 q 340 988 325 964 q 372 1031 354 1013 q 422 1049 389 1049 m 756 622 q 743 553 756 581 q 716 500 731 525 q 689 449 701 475 q 676 385 676 422 q 687 317 676 347 q 710 257 697 286 q 733 197 722 228 q 743 128 743 167 q 710 28 743 57 q 632 0 678 0 q 571 11 596 0 q 528 35 546 22 q 497 60 510 49 q 471 71 483 71 q 435 59 450 71 q 399 33 419 47 q 345 6 378 18 q 258 -7 313 -7 q 164 10 204 -7 q 98 56 124 28 q 59 119 72 83 q 46 194 46 156 q 49 236 46 219 q 57 269 53 253 q 65 304 61 285 q 68 354 68 324 q 58 423 68 392 q 34 485 47 454 q 10 548 21 515 q 0 622 0 581 q 42 731 0 693 q 158 769 83 769 q 275 731 233 769 q 317 622 317 693 q 306 558 317 586 q 281 504 294 529 q 256 455 267 479 q 244 401 244 431 q 252 349 244 376 q 277 301 260 322 q 322 265 294 279 q 388 251 349 251 q 435 257 413 251 q 474 277 457 263 q 503 318 492 292 q 518 385 515 344 q 506 449 518 422 q 478 500 493 475 q 451 553 464 525 q 439 622 439 581 q 481 731 439 693 q 597 769 522 769 q 714 731 672 769 q 756 622 756 693 z "},"ù":{"ha":785,"x_min":0,"x_max":756,"o":"m 756 622 q 743 553 756 581 q 716 500 731 525 q 689 449 701 475 q 676 385 676 422 q 687 317 676 347 q 710 257 697 286 q 733 197 722 228 q 743 128 743 167 q 710 28 743 57 q 632 0 678 0 q 571 11 596 0 q 528 35 546 22 q 497 60 510 49 q 471 71 483 71 q 435 59 450 71 q 399 33 419 47 q 345 6 378 18 q 258 -7 313 -7 q 164 10 204 -7 q 98 56 124 28 q 59 119 72 83 q 46 194 46 156 q 49 236 46 219 q 57 269 53 253 q 65 304 61 285 q 68 354 68 324 q 58 423 68 392 q 34 485 47 454 q 10 548 21 515 q 0 622 0 581 q 42 731 0 693 q 158 769 83 769 q 275 731 233 769 q 317 622 317 693 q 306 558 317 586 q 281 504 294 529 q 256 455 267 479 q 244 401 244 431 q 252 349 244 376 q 277 301 260 322 q 322 265 294 279 q 388 251 349 251 q 435 257 413 251 q 474 277 457 263 q 503 318 492 292 q 518 385 515 344 q 506 449 518 422 q 478 500 493 475 q 451 553 464 525 q 439 622 439 581 q 481 731 439 693 q 597 769 522 769 q 714 731 672 769 q 756 622 756 693 m 506 894 q 524 872 524 886 q 497 855 524 861 q 436 849 471 849 q 399 851 417 849 q 365 858 381 853 q 279 913 307 876 q 264 990 251 950 q 332 1046 279 1046 q 383 1028 365 1046 q 415 985 400 1010 q 449 935 429 961 q 506 894 468 910 z "},"š":{"ha":578,"x_min":0,"x_max":550,"o":"m 443 490 q 392 494 414 490 q 349 504 369 499 q 306 514 329 510 q 251 518 283 518 q 220 508 231 518 q 210 487 210 499 q 219 464 210 475 q 249 450 229 453 q 396 413 338 438 q 488 356 454 388 q 536 287 522 324 q 550 213 550 250 q 535 130 550 169 q 488 60 521 90 q 399 11 454 29 q 260 -7 343 -7 q 155 1 203 -7 q 73 27 107 10 q 19 72 39 44 q 0 135 0 99 q 6 188 0 163 q 24 234 11 214 q 56 266 36 254 q 106 278 76 278 q 172 272 146 278 q 217 258 197 265 q 256 245 238 251 q 300 239 275 239 q 330 249 319 239 q 341 271 340 258 q 332 294 342 283 q 301 306 322 304 q 183 330 238 310 q 90 381 129 350 q 28 453 50 413 q 6 539 6 493 q 76 711 6 646 q 303 776 147 776 q 484 728 421 776 q 547 596 547 681 q 516 517 547 544 q 443 490 485 490 m 169 931 q 117 972 136 947 q 97 1028 97 996 q 118 1082 97 1058 q 175 1106 139 1106 q 228 1084 204 1106 q 251 1028 251 1063 q 256 996 251 1015 q 266 958 260 976 q 281 928 272 940 q 300 915 290 915 q 322 928 313 915 q 337 958 331 940 q 346 996 343 976 q 349 1028 349 1015 q 372 1084 349 1063 q 425 1106 396 1106 q 482 1082 461 1106 q 503 1028 503 1058 q 483 972 503 996 q 431 931 464 947 q 397 907 413 921 q 366 881 381 893 q 335 859 351 868 q 300 850 319 850 q 268 859 283 850 q 238 881 253 868 q 206 907 222 893 q 169 931 189 921 z "},"ö":{"ha":589,"x_min":0,"x_max":561,"o":"m 146 1057 q 231 1029 206 1057 q 256 953 256 1001 q 231 877 256 904 q 146 850 206 850 q 61 877 86 850 q 36 953 36 904 q 61 1029 36 1001 q 146 1057 86 1057 m 417 1057 q 501 1029 476 1057 q 526 953 526 1001 q 501 877 526 904 q 417 850 476 850 q 332 877 357 850 q 307 953 307 904 q 332 1029 307 1001 q 417 1057 357 1057 m 281 776 q 409 744 356 776 q 496 657 463 711 q 545 532 529 603 q 561 385 561 461 q 545 238 561 308 q 496 113 529 167 q 409 26 463 58 q 281 -7 356 -7 q 152 26 206 -7 q 65 113 99 58 q 16 238 32 167 q 0 385 0 308 q 16 532 0 461 q 65 657 32 603 q 152 744 99 711 q 281 776 206 776 m 281 317 q 333 320 308 317 q 377 331 358 324 q 408 352 396 339 q 419 385 419 365 q 408 417 419 404 q 377 438 396 431 q 333 449 358 446 q 281 453 308 453 q 228 449 253 453 q 183 438 203 446 q 153 417 164 431 q 142 385 142 404 q 183 331 142 346 q 281 317 225 317 z "},"õ":{"ha":589,"x_min":0,"x_max":561,"o":"m 483 936 q 488 901 496 918 q 465 885 479 885 q 447 890 456 885 q 429 902 439 896 q 407 913 419 908 q 378 918 394 918 q 336 905 351 918 q 307 876 321 892 q 274 847 293 860 q 221 833 256 833 q 138 858 176 833 q 78 910 99 882 q 72 944 65 928 q 96 961 79 961 q 114 956 106 961 q 132 945 122 951 q 153 933 142 939 q 183 928 165 928 q 222 941 207 928 q 254 970 238 954 q 292 999 271 986 q 350 1013 314 1013 q 428 988 394 1013 q 483 936 461 964 m 281 776 q 409 744 356 776 q 496 657 463 711 q 545 532 529 603 q 561 385 561 461 q 545 238 561 308 q 496 113 529 167 q 409 26 463 58 q 281 -7 356 -7 q 152 26 206 -7 q 65 113 99 58 q 16 238 32 167 q 0 385 0 308 q 16 532 0 461 q 65 657 32 603 q 152 744 99 711 q 281 776 206 776 m 281 317 q 333 320 308 317 q 377 331 358 324 q 408 352 396 339 q 419 385 419 365 q 408 417 419 404 q 377 438 396 431 q 333 449 358 446 q 281 453 308 453 q 228 449 253 453 q 183 438 203 446 q 153 417 164 431 q 142 385 142 404 q 183 331 142 346 q 281 317 225 317 z "},"ô":{"ha":589,"x_min":0,"x_max":561,"o":"m 281 776 q 409 744 356 776 q 496 657 463 711 q 545 532 529 603 q 561 385 561 461 q 545 238 561 308 q 496 113 529 167 q 409 26 463 58 q 281 -7 356 -7 q 152 26 206 -7 q 65 113 99 58 q 16 238 32 167 q 0 385 0 308 q 16 532 0 461 q 65 657 32 603 q 152 744 99 711 q 281 776 206 776 m 281 317 q 333 320 308 317 q 377 331 358 324 q 408 352 396 339 q 419 385 419 365 q 408 417 419 404 q 377 438 396 431 q 333 449 358 446 q 281 453 308 453 q 228 449 253 453 q 183 438 203 446 q 153 417 164 431 q 142 385 142 404 q 183 331 142 346 q 281 317 225 317 m 411 1025 q 464 984 444 1008 q 483 928 483 960 q 463 874 483 899 q 406 850 442 850 q 353 872 376 850 q 329 928 329 893 q 325 960 329 940 q 315 997 321 979 q 299 1028 308 1015 q 281 1040 290 1040 q 259 1028 268 1040 q 244 997 250 1015 q 235 960 238 979 q 232 928 232 940 q 208 872 232 893 q 156 850 185 850 q 99 874 119 850 q 78 928 78 899 q 97 984 78 960 q 150 1025 117 1008 q 185 1049 169 1035 q 215 1075 200 1063 q 245 1097 229 1088 q 281 1106 261 1106 q 313 1097 297 1106 q 343 1075 328 1088 q 376 1049 358 1063 q 411 1025 393 1035 z "},"ó":{"ha":589,"x_min":0,"x_max":561,"o":"m 325 1049 q 393 993 378 1049 q 378 916 406 953 q 292 861 350 879 q 258 853 276 856 q 221 851 240 851 q 160 858 186 851 q 133 875 133 864 q 151 897 133 889 q 208 938 189 913 q 242 988 228 964 q 274 1031 257 1013 q 325 1049 292 1049 m 281 776 q 409 744 356 776 q 496 657 463 711 q 545 532 529 603 q 561 385 561 461 q 545 238 561 308 q 496 113 529 167 q 409 26 463 58 q 281 -7 356 -7 q 152 26 206 -7 q 65 113 99 58 q 16 238 32 167 q 0 385 0 308 q 16 532 0 461 q 65 657 32 603 q 152 744 99 711 q 281 776 206 776 m 281 317 q 333 320 308 317 q 377 331 358 324 q 408 352 396 339 q 419 385 419 365 q 408 417 419 404 q 377 438 396 431 q 333 449 358 446 q 281 453 308 453 q 228 449 253 453 q 183 438 203 446 q 153 417 164 431 q 142 385 142 404 q 183 331 142 346 q 281 317 225 317 z "},"ò":{"ha":589,"x_min":0,"x_max":561,"o":"m 281 776 q 409 744 356 776 q 496 657 463 711 q 545 532 529 603 q 561 385 561 461 q 545 238 561 308 q 496 113 529 167 q 409 26 463 58 q 281 -7 356 -7 q 152 26 206 -7 q 65 113 99 58 q 16 238 32 167 q 0 385 0 308 q 16 532 0 461 q 65 657 32 603 q 152 744 99 711 q 281 776 206 776 m 281 317 q 333 320 308 317 q 377 331 358 324 q 408 352 396 339 q 419 385 419 365 q 408 417 419 404 q 377 438 396 431 q 333 449 358 446 q 281 453 308 453 q 228 449 253 453 q 183 438 203 446 q 153 417 164 431 q 142 385 142 404 q 183 331 142 346 q 281 317 225 317 m 408 894 q 426 872 426 886 q 400 855 426 861 q 339 849 374 849 q 301 851 319 849 q 268 858 283 853 q 182 913 210 876 q 167 990 154 950 q 235 1046 182 1046 q 285 1028 268 1046 q 317 985 303 1010 q 351 935 332 961 q 408 894 371 910 z "},"ý":{"ha":693,"x_min":0,"x_max":665,"o":"m 382 1049 q 450 993 435 1049 q 435 916 463 953 q 349 861 407 879 q 315 853 333 856 q 278 851 297 851 q 217 858 243 851 q 190 875 190 864 q 208 897 190 889 q 265 938 246 913 q 299 988 285 964 q 331 1031 314 1013 q 382 1049 349 1049 m 47 474 q 40 519 47 499 q 24 560 32 540 q 8 601 15 579 q 0 649 0 622 q 38 739 0 708 q 132 769 75 769 q 241 733 208 769 q 274 647 274 696 q 265 601 274 622 q 247 558 257 579 q 228 516 236 538 q 219 469 219 494 q 249 383 219 418 q 328 349 279 349 q 405 377 378 349 q 432 454 432 406 q 425 507 432 488 q 410 542 418 526 q 394 574 401 557 q 388 622 388 592 q 420 731 388 693 q 519 769 453 769 q 630 731 594 769 q 665 622 665 693 q 657 546 665 581 q 639 478 649 511 q 621 411 629 444 q 613 340 613 378 q 618 261 613 293 q 631 201 624 229 q 643 144 638 174 q 649 74 649 115 q 625 -21 649 19 q 559 -88 601 -61 q 457 -128 517 -115 q 326 -142 397 -142 q 181 -129 242 -142 q 79 -94 119 -117 q 19 -42 39 -72 q 0 24 0 -11 q 13 88 0 63 q 46 130 25 114 q 94 153 67 146 q 150 160 121 160 q 217 152 183 160 q 284 136 251 144 q 346 120 317 128 q 396 113 375 113 q 431 125 418 113 q 443 158 443 138 q 426 197 443 182 q 389 213 410 213 q 353 206 368 213 q 324 192 339 200 q 292 178 310 185 q 246 172 274 172 q 84 215 138 172 q 31 336 31 258 q 39 418 31 389 q 47 474 47 447 z "},"ÿ":{"ha":693,"x_min":0,"x_max":665,"o":"m 203 1057 q 288 1029 263 1057 q 313 953 313 1001 q 288 877 313 904 q 203 850 263 850 q 118 877 143 850 q 93 953 93 904 q 118 1029 93 1001 q 203 1057 143 1057 m 474 1057 q 558 1029 533 1057 q 583 953 583 1001 q 558 877 583 904 q 474 850 533 850 q 389 877 414 850 q 364 953 364 904 q 389 1029 364 1001 q 474 1057 414 1057 m 47 474 q 40 519 47 499 q 24 560 32 540 q 8 601 15 579 q 0 649 0 622 q 38 739 0 708 q 132 769 75 769 q 241 733 208 769 q 274 647 274 696 q 265 601 274 622 q 247 558 257 579 q 228 516 236 538 q 219 469 219 494 q 249 383 219 418 q 328 349 279 349 q 405 377 378 349 q 432 454 432 406 q 425 507 432 488 q 410 542 418 526 q 394 574 401 557 q 388 622 388 592 q 420 731 388 693 q 519 769 453 769 q 630 731 594 769 q 665 622 665 693 q 657 546 665 581 q 639 478 649 511 q 621 411 629 444 q 613 340 613 378 q 618 261 613 293 q 631 201 624 229 q 643 144 638 174 q 649 74 649 115 q 625 -21 649 19 q 559 -88 601 -61 q 457 -128 517 -115 q 326 -142 397 -142 q 181 -129 242 -142 q 79 -94 119 -117 q 19 -42 39 -72 q 0 24 0 -11 q 13 88 0 63 q 46 130 25 114 q 94 153 67 146 q 150 160 121 160 q 217 152 183 160 q 284 136 251 144 q 346 120 317 128 q 396 113 375 113 q 431 125 418 113 q 443 158 443 138 q 426 197 443 182 q 389 213 410 213 q 353 206 368 213 q 324 192 339 200 q 292 178 310 185 q 246 172 274 172 q 84 215 138 172 q 31 336 31 258 q 39 418 31 389 q 47 474 47 447 z "},"ž":{"ha":628,"x_min":0,"x_max":599,"o":"m 499 246 q 579 213 560 246 q 599 126 599 181 q 570 57 599 82 q 497 19 542 32 q 395 3 451 7 q 282 0 339 0 q 69 40 139 0 q 0 176 0 79 q 17 228 0 200 q 60 284 33 256 q 119 341 86 313 q 183 394 151 369 q 243 438 215 418 q 288 467 271 457 q 317 497 314 482 q 300 511 319 511 q 269 510 289 511 q 226 506 250 508 q 175 503 201 504 q 124 501 149 501 q 27 538 54 501 q 0 631 0 575 q 28 702 0 675 q 102 744 57 729 q 204 765 147 760 q 318 769 261 769 q 442 765 389 769 q 529 743 494 761 q 581 690 564 725 q 599 593 599 656 q 569 519 599 557 q 498 445 540 481 q 408 379 456 410 q 326 328 361 349 q 280 292 289 307 q 276 267 271 276 q 297 254 282 258 q 322 250 311 250 q 410 248 363 250 q 499 246 457 246 m 188 931 q 135 972 154 947 q 115 1028 115 996 q 136 1082 115 1058 q 193 1106 157 1106 q 246 1084 222 1106 q 269 1028 269 1063 q 274 996 269 1015 q 284 958 278 976 q 299 928 290 940 q 318 915 308 915 q 340 928 331 915 q 355 958 349 940 q 364 996 361 976 q 367 1028 367 1015 q 390 1084 367 1063 q 443 1106 414 1106 q 500 1082 479 1106 q 521 1028 521 1058 q 501 972 521 996 q 449 931 482 947 q 415 907 431 921 q 384 881 399 893 q 353 859 369 868 q 318 850 338 850 q 286 859 301 850 q 256 881 271 868 q 224 907 240 893 q 188 931 207 921 z "},"ç":{"ha":586,"x_min":0,"x_max":557,"o":"m 224 310 q 272 315 250 310 q 315 327 293 321 q 363 338 336 333 q 424 343 389 343 q 522 313 486 343 q 557 214 557 282 q 491 44 557 94 q 292 -7 425 -7 q 162 26 217 -7 q 71 113 107 58 q 17 238 35 167 q 0 385 0 308 q 17 532 0 461 q 70 657 35 603 q 160 744 106 711 q 290 776 215 776 q 488 709 424 776 q 551 531 551 642 q 518 440 551 475 q 433 404 485 404 q 374 414 399 404 q 328 436 350 424 q 281 458 306 449 q 221 468 257 468 q 164 447 186 468 q 142 385 142 425 q 165 328 142 347 q 224 310 188 310 m 271 -50 q 428 -181 428 -50 q 390 -274 428 -239 q 294 -310 351 -310 q 222 -282 250 -310 q 194 -218 194 -254 q 206 -172 194 -187 q 233 -156 217 -156 q 258 -162 244 -156 q 288 -176 274 -171 q 313 -182 301 -182 q 339 -146 339 -182 q 325 -108 339 -124 q 282 -92 311 -92 q 228 -87 242 -92 q 215 -72 214 -83 q 227 -42 217 -61 q 244 7 238 -22 q 255 28 247 18 q 288 39 263 39 q 314 31 303 39 q 325 4 325 24 q 313 -14 325 -4 q 290 -31 301 -24 q 270 -44 278 -39 q 271 -50 263 -50 z "},"Ç":{"ha":747,"x_min":0,"x_max":719,"o":"m 290 363 q 349 370 318 363 q 410 387 379 378 q 472 403 442 396 q 529 411 503 411 q 671 366 622 411 q 719 247 719 321 q 697 136 719 183 q 632 57 674 89 q 531 9 590 25 q 401 -7 472 -7 q 226 34 301 -7 q 101 144 151 75 q 25 302 50 213 q 0 489 0 392 q 23 676 0 586 q 92 834 46 765 q 209 944 139 903 q 375 985 279 985 q 634 909 549 985 q 719 696 719 833 q 673 579 719 622 q 560 536 626 536 q 478 552 513 536 q 410 588 444 568 q 335 623 376 607 q 235 639 294 639 q 137 599 172 639 q 101 503 101 558 q 117 449 101 474 q 158 404 132 424 q 217 374 183 385 q 290 363 251 363 m 358 -35 q 515 -165 515 -35 q 477 -259 515 -224 q 382 -294 439 -294 q 310 -267 338 -294 q 282 -203 282 -239 q 293 -156 282 -172 q 321 -140 304 -140 q 346 -147 332 -140 q 375 -161 361 -156 q 400 -167 389 -167 q 426 -131 426 -167 q 413 -92 426 -108 q 369 -76 399 -76 q 315 -72 329 -76 q 303 -57 301 -68 q 315 -26 304 -46 q 332 22 325 -7 q 342 44 335 33 q 375 54 350 54 q 401 47 390 54 q 413 19 413 39 q 401 1 413 11 q 377 -16 389 -8 q 358 -29 365 -24 q 358 -35 350 -35 z "}}}
